<svg width="155" height="143" viewBox="0 0 155 143" fill="none" xmlns="http://www.w3.org/2000/svg">
<path d="M62.7966 107.458C59.3273 110.362 55.9753 113.807 52.8163 117.715C50.8696 120.259 49.1467 123.115 47.1374 125.754C45.2846 128.129 43.3541 130.336 41.3634 132.355C39.3102 134.434 37.2139 136.361 35.0857 138.127C32.9381 140.036 30.7191 141.568 28.4884 142.683C26.2304 143.568 23.9856 144.232 21.7694 144.671C19.615 145.246 17.4324 146.131 15.2522 147.315C10.8515 149.649 6.69006 153.121 3.20587 158.803C2.8999 159.314 2.39673 158.82 2.74618 158.24C5.70733 153.493 9.30382 149.778 13.0624 147.583C15.0093 146.385 16.9665 145.395 18.9163 144.622C21.2341 143.764 23.537 143.368 25.8586 142.695C28.2529 141.999 30.689 140.668 33.0501 138.766C35.2569 137.023 37.436 135.12 39.5773 133.065C41.7013 131.03 43.7661 128.786 45.7521 126.355C47.7095 123.948 49.4799 121.293 51.3044 118.706C54.8423 114.038 58.7062 110.08 62.7313 107.001C62.9768 106.802 63.0125 107.233 62.7931 107.44L62.7966 107.458Z" fill="#E0E0E0"/>
<path d="M85.0576 90.197C86.7768 88.3113 87.4645 79.7694 86.6737 79.1247C85.8828 78.4801 77.4585 80.4463 75.6017 82.4448C75.2721 82.8649 75.0694 83.3606 75.0149 83.8796C74.9605 84.3987 75.0563 84.9219 75.2923 85.3942C75.8631 86.7396 76.7674 87.9382 77.9303 88.8911C79.0933 89.8439 80.4815 90.5236 81.9801 90.8739C82.5114 91.0239 83.0754 91.0404 83.6155 90.9216C84.1557 90.8028 84.653 90.5529 85.0576 90.197Z" fill="#BA68C8"/>
<path opacity="0.3" d="M85.0576 90.197C86.7768 88.3113 87.4645 79.7694 86.6737 79.1247C85.8828 78.4801 77.4585 80.4463 75.6017 82.4448C75.2721 82.8649 75.0694 83.3606 75.0149 83.8796C74.9605 84.3987 75.0563 84.9219 75.2923 85.3942C75.8631 86.7396 76.7674 87.9382 77.9303 88.8911C79.0933 89.8439 80.4815 90.5236 81.9801 90.8739C82.5114 91.0239 83.0754 91.0404 83.6155 90.9216C84.1557 90.8028 84.653 90.5529 85.0576 90.197Z" fill="black"/>
<path d="M144.477 67.2C131.447 82.0478 103.274 90.5561 84.8274 80.88C73.1724 63.1961 77.3648 35.0853 90.4117 20.2208C103.459 5.35624 125.242 -0.149132 142.666 14.9823C160.09 30.1138 157.524 52.3355 144.477 67.2Z" fill="#A0466D"/>
<path opacity="0.1" d="M84.7682 29.0833C84.7682 29.0833 76.2501 46.8063 93.0505 63.33C109.228 79.2374 139.63 72.6579 150 59.882C148.495 62.5017 146.723 64.963 144.714 67.2277C131.634 82.0524 103.353 90.5475 84.8355 80.8864C75.1391 66.2616 76.4185 44.4743 84.5325 29L84.7682 29.0833Z" fill="black"/>
<path d="M18.9194 86.3948C17.308 90.3962 16.2098 94.7453 15.6882 99.1915C15.0254 104 14.4758 108.807 13.8818 113.608C13.2707 118.227 12.2642 122.776 10.8879 127.14C9.50616 131.677 7.84158 136.056 6.75842 140.72C5.57874 146.087 4.65851 151.532 4.00527 157.01C3.91026 157.699 3.0697 157.737 3.16471 157.047C3.76818 152.271 4.53282 147.516 5.45561 142.801C6.5796 138.074 7.93163 133.439 9.5003 128.935C10.9828 124.496 12.1246 119.869 12.9015 115.151C13.5967 110.107 14.0814 105.034 14.832 99.9981C15.5825 94.962 16.4086 90.279 18.5905 86.1608C18.772 85.8261 19.1015 85.9746 18.9194 86.3948Z" fill="#E0E0E0"/>
<path d="M14.9554 87.3874C14.7555 88.1818 14.3683 88.914 13.828 89.5197C13.2876 90.1255 12.6104 90.5864 11.8556 90.8622C11.1009 91.1379 10.2917 91.22 9.49881 91.1013C8.70592 90.9826 7.95352 90.6668 7.30749 90.1814C6.24528 89.2947 5.24843 87.3372 6.67017 86.2999C8.0919 85.2625 9.75876 87.1531 10.1836 88.3745C10.4134 89.1752 10.4228 90.0254 10.2108 90.8313C9.99887 91.6371 9.57376 92.3675 8.98234 92.9418C8.39091 93.5162 7.65612 93.9123 6.8589 94.0865C6.06168 94.2607 5.23296 94.2062 4.46403 93.9291C3.74433 93.6401 3.14039 93.1118 2.74919 92.4291C2.35799 91.7464 2.20223 90.9489 2.30692 90.1647C2.38347 89.8229 2.55057 89.5093 2.78986 89.2584C3.02915 89.0075 3.33137 88.829 3.66329 88.7426C3.99664 88.7084 4.33219 88.78 4.62449 88.9475C4.91679 89.1151 5.15172 89.3706 5.29747 89.6795C5.71215 90.4053 5.86409 91.2574 5.72664 92.0864C5.5892 92.9154 5.17114 93.6685 4.54575 94.2135C3.90791 94.7496 3.10067 95.0285 2.27599 94.9977C1.45131 94.9669 0.666069 94.6285 0.0681019 94.0462C-0.177024 93.7618 0.296885 93.2432 0.591037 93.4774C1.02492 93.8447 1.55218 94.0776 2.11087 94.1487C2.66956 94.2198 3.23646 94.1262 3.74499 93.8789C4.22876 93.5759 4.60242 93.1192 4.80897 92.5785C5.01551 92.0378 5.0436 91.4427 4.88892 90.8841C4.79104 90.388 4.52473 89.9435 4.1372 89.6293C3.77769 89.3783 3.41816 89.7297 3.28743 90.081C3.23884 90.3126 3.23884 90.5521 3.28743 90.7837C3.3635 91.2861 3.55803 91.762 3.85416 92.1701C4.15029 92.5783 4.53911 92.9064 4.98697 93.126C5.49139 93.3157 6.03284 93.379 6.56605 93.3107C7.09925 93.2423 7.60872 93.0442 8.05187 92.733C8.49501 92.4218 8.85895 92.0065 9.11326 91.5219C9.36757 91.0372 9.50484 90.4973 9.51362 89.9472C9.56669 89.3377 9.43917 88.7259 9.14767 88.1917C8.85617 87.6575 8.41422 87.2256 7.87945 86.9524C7.5853 86.8018 7.5853 86.8018 7.25847 86.9524C6.93163 87.1029 6.86627 87.2033 6.91529 87.6718C6.95724 87.9292 7.04004 88.1779 7.16042 88.4079C7.41161 88.8877 7.76315 89.3047 8.18995 89.6293C10.6249 91.4697 13.5337 89.7631 14.5796 87.22C14.7103 86.9189 15.0698 87.0193 14.9881 87.3539L14.9554 87.3874Z" fill="#E0E0E0"/>
<path d="M23.8472 87.2897C24.6342 85.074 22.1729 77.3272 21.2185 77.0153C20.2641 76.7035 13.935 81.2334 13.0811 83.5804C12.9625 84.0588 12.9743 84.5593 13.1153 85.0317C13.2564 85.5042 13.5218 85.932 13.8848 86.2721C14.8533 87.2829 16.0556 88.0506 17.3902 88.5105C18.7248 88.9704 20.1526 89.109 21.5534 88.9146C22.0606 88.873 22.5473 88.6987 22.9625 88.4101C23.3777 88.1214 23.7064 87.7288 23.9142 87.2733L23.8472 87.2897Z" fill="#FF917C"/>
<path d="M67.6474 47.0607C61.5277 64.5906 40.0918 81.9183 20.6901 79.8281C4.39881 68.4337 -1.805 42.3916 4.31475 24.8617C10.4345 7.33176 27.3983 -5.09089 47.8087 2.05592C68.2191 9.20274 73.7672 29.5644 67.6474 47.0607Z" fill="#FF917C"/>
<path d="M2.50646 34C2.50646 34 1.37437 52.3388 21.469 60.808C40.831 69.0271 64.5716 52.8723 69.0001 38.2346C68.622 41.0224 67.9638 43.7649 67.0356 46.4204C60.9755 63.7589 39.7489 80.8973 20.5366 78.83C7.21795 69.4939 0.675133 50.2048 2.22343 34H2.50646Z" fill="#F28A76"/>
<path d="M31.9063 117.315C29.7113 124.125 24.5524 127.588 20.3612 130.932C15.6721 134.643 11.0702 139.253 7.66251 145.665C5.85309 149.165 4.35872 152.926 3.23205 156.814C3.03221 157.485 2.23454 157.406 2.43438 156.735C4.24023 150.279 7.12832 144.231 10.7809 139.256C12.7161 136.752 14.7907 134.526 16.9616 132.623C19.2003 130.62 21.5347 128.966 23.8052 127.08C26.8346 124.582 29.6155 121.69 31.5193 117.199C31.607 116.904 32.0526 116.824 31.9205 117.23L31.9063 117.315Z" fill="#E0E0E0"/>
<path d="M32.9996 117.191C32.9681 117.98 32.7274 118.75 32.2991 119.432C31.8708 120.114 31.2681 120.687 30.5446 121.1C29.8211 121.513 28.9992 121.753 28.1521 121.798C27.3051 121.844 26.459 121.694 25.6893 121.361C24.4366 120.738 22.8235 118.933 24.4022 117.782C24.7488 117.586 25.1465 117.482 25.552 117.482C25.9575 117.482 26.3552 117.586 26.7017 117.782C27.608 118.175 28.3154 118.879 28.6752 119.748C28.9462 120.458 29.0133 121.222 28.8698 121.964C28.7264 122.706 28.3774 123.4 27.8573 123.978C27.3373 124.556 26.6642 124.997 25.9047 125.259C25.1453 125.52 24.3257 125.592 23.527 125.468C22.7777 125.327 22.0949 124.97 21.5747 124.448C21.0544 123.927 20.7229 123.266 20.6269 122.56C20.6137 122.258 20.6929 121.958 20.8552 121.696C21.0175 121.434 21.2563 121.221 21.5439 121.08C21.8314 120.94 22.1559 120.878 22.4796 120.902C22.8033 120.927 23.113 121.036 23.3726 121.218C24.0305 121.775 24.4413 122.54 24.5247 123.365C24.6081 124.189 24.3581 125.013 23.8235 125.674C23.2889 126.336 22.5083 126.788 21.6346 126.942C20.7608 127.096 19.8568 126.941 19.0996 126.507C18.7907 126.299 19.2712 125.788 19.5801 125.915C20.1022 126.176 20.6959 126.287 21.2857 126.233C21.8756 126.179 22.4347 125.963 22.8921 125.612C23.2919 125.255 23.5665 124.794 23.6798 124.289C23.7931 123.784 23.7399 123.26 23.527 122.784C23.3211 122.32 22.8063 121.553 22.2057 121.505C21.6051 121.457 21.6051 122.56 21.7767 122.959C21.9801 123.401 22.2956 123.79 22.6961 124.094C23.0966 124.397 23.5702 124.605 24.0762 124.701C24.7747 124.732 25.4686 124.579 26.0777 124.259C26.6868 123.939 27.1861 123.465 27.5182 122.892C27.8502 122.319 28.0012 121.67 27.9539 121.02C27.9067 120.37 27.6629 119.746 27.2509 119.22C27.0052 118.909 26.6765 118.663 26.2973 118.506C25.9181 118.349 25.5015 118.287 25.0887 118.325C24.694 118.421 24.6425 118.565 24.694 118.949C24.6866 119.034 24.6866 119.119 24.694 119.204C24.8243 119.471 25.0111 119.71 25.2431 119.907C25.6044 120.3 26.056 120.611 26.5644 120.818C29.3959 121.937 31.97 119.827 32.502 117.287C32.502 117.015 33.0168 116.807 32.9996 117.287V117.191Z" fill="#E0E0E0"/>
<path d="M39.0001 113.3L38.3407 120.926C38.3407 120.926 36.3799 123.54 31.3997 120.612C27.2351 118.097 28.0681 115.434 28.0681 115.434L34.5058 111C35.8797 111.969 37.3935 112.744 39.0001 113.3Z" fill="white"/>
<path d="M66.4363 56.1551C80.9911 51.9299 96.2279 59.1731 98.7397 76.0068C101.351 93.4441 84.4177 113.313 43.4314 114C40.8138 113.995 38.2513 113.243 36.0405 111.83C33.8297 110.418 32.061 108.403 30.9392 106.019C21.3912 86.7375 20.0272 66.3995 29.1926 52.8353C39.7885 37.1418 62.7269 41.7023 66.4363 56.1551Z" fill="white"/>
<path d="M53.0001 44C56.0486 44.671 58.8637 46.1622 61.1507 48.3176C63.4377 50.473 65.1126 53.2133 66.0001 56.2518C63.5008 56.9273 61.2022 58.2141 59.3051 60C60.0363 56.0867 60.9626 47.6987 53.0001 44Z" fill="#E0E0E0"/>
<path d="M90.6716 91.6122C98.2376 80.7186 95.916 65.7378 90.6716 61C95.1266 64.9134 97.9957 70.3185 98.7386 76.1977C101.361 93.5474 84.3583 113.316 43.2047 114C42.4672 114.001 41.7306 113.951 41.0001 113.85C68.9591 112.999 83.8572 101.438 90.6716 91.6122Z" fill="#E0E0E0"/>
</svg>
