<svg width="187" height="214" viewBox="0 0 187 214" fill="none" xmlns="http://www.w3.org/2000/svg">
<path d="M68.0297 99.9812C72.1816 105.228 76.4141 110.486 79.9057 116.606C80.8334 118.245 81.6366 119.931 82.6302 121.519C83.6064 123.138 84.6397 124.705 85.7211 126.208C87.8313 129.161 90.0894 131.88 92.4393 134.297C96.9289 138.89 101.707 141.628 106.115 146.529C110.999 151.951 114.269 159.5 118.823 165.394C123.925 172.002 131.065 176.745 134.399 185.523C134.647 186.196 135.35 186.03 135.095 185.343C132.191 177.695 126.355 172.887 121.639 167.646C119.135 164.768 116.807 161.502 114.755 157.988C112.794 154.565 110.67 151.272 108.412 148.159C104.071 142.494 99.1247 139.522 94.4809 135.258C89.5373 130.622 84.9713 124.561 81.3173 117.783C77.5923 110.966 72.9725 105.213 68.2864 99.7427C68.067 99.482 67.7666 99.6185 68.0517 99.9699L68.0297 99.9812Z" fill="#E0E0E0"/>
<path d="M64.613 101.389C63.3092 99.3836 63.9983 91.1922 64.8279 90.754C65.6575 90.3157 72.9452 93.2246 74.323 95.3689C74.5591 95.8108 74.6697 96.3081 74.6432 96.8085C74.6166 97.3089 74.454 97.794 74.1723 98.2129C73.4521 99.4133 72.4552 100.431 71.263 101.182C70.0708 101.934 68.7171 102.399 67.3125 102.538C66.8129 102.616 66.3021 102.562 65.833 102.38C65.3639 102.198 64.9536 101.896 64.6446 101.504L64.613 101.389Z" fill="#A0466D"/>
<path d="M13.7777 71.7685C23.6874 87.1277 48.5721 98.8342 66.9261 92.3054C80.2273 77.6752 80.4237 51.4266 70.4793 36.0065C60.535 20.5865 41.2353 12.6665 22.9643 24.1864C4.69322 35.7064 3.8513 56.4139 13.7777 71.7685Z" fill="#A0466D"/>
<path opacity="0.1" d="M73.2898 44.6609C73.2898 44.6609 78.5813 62.3124 61.083 75.2689C44.1531 87.7845 17.2747 77.2817 9.61434 64.0078C10.6359 66.6499 11.9237 69.1807 13.4574 71.5604C23.3386 87.1902 48.053 99.2124 66.1791 92.7239C76.9733 80.5287 78.8489 60.1332 73.5246 44.6146L73.2898 44.6609Z" fill="black"/>
<path d="M145.718 95.5328C145.693 101.79 145.365 107.987 144.74 114.019C144.383 117.047 143.936 120.01 143.401 122.889C142.829 125.85 142.17 128.815 141.749 132.035C140.134 143.855 141.75 157.028 139.773 168.656C138.651 175.224 136.265 179.56 133.818 183.721C133.539 184.202 133.968 184.965 134.21 184.56C136.319 180.969 138.471 177.23 139.73 171.951C140.989 166.671 141.313 160.573 141.42 154.615C141.531 148.186 141.39 141.648 141.956 135.365C142.297 132.065 142.795 128.87 143.44 125.828C144.034 122.899 144.54 119.881 144.955 116.79C145.829 110.005 146.186 102.893 146.014 95.7279C146.004 95.4342 145.723 95.0916 145.717 95.4888L145.718 95.5328Z" fill="#E0E0E0"/>
<path d="M148.18 94.6489C148.152 95.676 148.39 96.695 148.872 97.6042C149.353 98.5135 150.06 99.2812 150.922 99.8309C151.785 100.381 152.773 100.693 153.787 100.737C154.802 100.781 155.808 100.555 156.704 100.081C158.048 99.3393 159.865 96.9333 157.837 95.7568C157.383 95.5834 156.897 95.5181 156.416 95.5659C155.935 95.6138 155.473 95.7735 155.065 96.0327C154.102 96.5152 153.364 97.356 153.002 98.3806C152.694 99.2481 152.617 100.184 152.779 101.096C152.941 102.007 153.337 102.861 153.926 103.573C154.515 104.285 155.277 104.829 156.136 105.152C156.994 105.474 157.92 105.563 158.819 105.409C159.67 105.248 160.448 104.823 161.046 104.193C161.644 103.563 162.033 102.759 162.159 101.891C162.197 101.485 162.105 101.075 161.898 100.723C161.691 100.37 161.379 100.092 161.008 99.9294C160.636 99.7667 160.224 99.7275 159.831 99.8175C159.438 99.9075 159.085 100.122 158.822 100.43C158.098 101.124 157.652 102.063 157.566 103.072C157.481 104.081 157.763 105.09 158.358 105.91C158.989 106.697 159.873 107.236 160.853 107.428C161.833 107.621 162.846 107.456 163.711 106.963C164.1 106.714 163.483 106.133 163.137 106.281C162.509 106.587 161.798 106.68 161.11 106.547C160.422 106.414 159.792 106.062 159.312 105.542C158.932 105.059 158.692 104.479 158.621 103.867C158.549 103.256 158.648 102.638 158.907 102.084C159.024 101.743 159.225 101.438 159.492 101.2C159.759 100.961 160.082 100.797 160.432 100.722C160.791 100.624 160.823 100.74 160.944 101.117C160.998 101.25 161.037 101.39 161.058 101.532C161.066 101.911 160.989 102.286 160.832 102.629C160.557 103.163 160.155 103.62 159.663 103.96C159.171 104.3 158.604 104.512 158.01 104.578C155.21 104.879 153.385 101.63 154.003 99.1421C154.137 98.4345 154.488 97.7897 155.007 97.299C155.525 96.8082 156.184 96.4965 156.891 96.408C158.025 96.3122 157.685 97.6362 157.264 98.2151C156.811 98.853 156.179 99.3367 155.448 99.6036C152.264 100.813 149.376 97.9798 148.873 94.8697C148.805 94.6208 148.269 94.2678 148.254 94.6642L148.18 94.6489Z" fill="#E0E0E0"/>
<path d="M140.844 95.9738C140.647 93.5871 145.047 86.6368 145.982 86.5759C146.917 86.5149 151.888 92.549 152.093 95.0927C152.091 95.5953 151.954 96.0876 151.697 96.5185C151.441 96.9495 151.073 97.3032 150.634 97.543C149.451 98.2654 148.115 98.6978 146.733 98.8051C145.351 98.9124 143.962 98.6916 142.679 98.1607C142.206 97.9942 141.786 97.7033 141.463 97.3185C141.14 96.9337 140.927 96.4692 140.844 95.9738Z" fill="#FF917C"/>
<path d="M109.659 45.4871C111.099 63.6427 127.247 85.4197 146.391 88.268C164.886 81.4571 177.461 58.3296 176.055 40.165C174.648 22.0004 161.503 5.98965 140.118 7.70592C118.733 9.42219 108.252 27.3225 109.659 45.4871Z" fill="#FF917C"/>
<path opacity="0.05" d="M174.684 50.1693C174.684 50.1693 171.195 68.2024 149.605 71.2708C128.819 74.2442 109.935 52.4409 109.334 37.0747C108.993 39.8775 108.937 42.7096 109.166 45.5271C110.686 63.9189 126.886 86.0461 145.985 89.0193C161.263 83.4194 172.39 66.3798 174.897 50.2358L174.684 50.1693Z" fill="black"/>
<path d="M119.4 115.922C120.347 119.395 121.39 122.816 122.245 126.325C122.818 128.659 123.313 131.016 123.724 133.378C124.119 135.821 124.429 138.26 124.65 140.678C125.036 145.487 125.997 150.413 127.462 155.097C128.849 159.934 130.451 164.66 131.749 169.547C133.251 174.751 134.084 180.191 134.164 185.328C134.154 186.014 134.833 186.268 134.842 185.613C134.902 176.277 131.601 166.659 128.866 157.615C128.081 155.094 127.367 152.534 126.728 149.946C126.154 147.458 125.735 144.941 125.482 142.452C125.205 140.027 125.006 137.601 124.635 135.166C124.263 132.73 123.779 130.294 123.191 127.887C122.202 123.828 121.041 119.832 119.721 115.944C119.655 115.648 119.279 115.514 119.413 116.012L119.4 115.922Z" fill="#E0E0E0"/>
<path d="M124.286 119.944C124.076 120.919 124.116 121.934 124.403 122.894C124.689 123.853 125.212 124.724 125.923 125.426C126.634 126.127 127.508 126.634 128.464 126.901C129.419 127.167 130.424 127.183 131.384 126.947C132.796 126.561 135.048 124.926 133.751 123.223C132.453 121.521 129.559 122.813 128.503 124.175C127.9 124.904 127.51 125.79 127.376 126.734C127.242 127.678 127.37 128.643 127.745 129.522C128.12 130.401 128.728 131.16 129.501 131.715C130.274 132.269 131.182 132.598 132.125 132.664C132.973 132.732 133.821 132.551 134.567 132.145C135.313 131.738 135.926 131.122 136.332 130.37C136.552 130.015 136.648 129.596 136.605 129.178C136.563 128.76 136.385 128.367 136.099 128.06C135.813 127.754 135.435 127.551 135.024 127.485C134.614 127.418 134.194 127.49 133.831 127.691C132.864 128.128 132.107 128.93 131.721 129.928C131.335 130.925 131.352 132.038 131.766 133.03C132.225 133.942 132.988 134.663 133.92 135.063C134.851 135.464 135.89 135.519 136.852 135.218C137.328 135.087 136.806 134.407 136.435 134.473C135.789 134.617 135.113 134.554 134.501 134.292C133.889 134.03 133.371 133.583 133.02 133.012C132.669 132.441 132.501 131.774 132.542 131.106C132.582 130.437 132.827 129.8 133.244 129.282C133.448 129.028 133.692 128.81 133.967 128.637C134.353 128.371 134.935 128.176 135.318 128.608C135.702 129.039 135.055 130.218 134.757 130.55C134.351 130.988 133.841 131.314 133.275 131.5C132.709 131.686 132.105 131.725 131.518 131.614C128.887 131.099 127.882 127.761 128.895 125.534C129.187 124.891 129.645 124.34 130.222 123.938C130.725 123.585 132.449 122.918 132.959 123.619C133.469 124.32 132.595 125.185 132.091 125.537C131.448 125.986 130.69 126.237 129.906 126.259C126.629 126.35 124.78 123.153 124.929 120.162C124.851 119.879 124.402 119.465 124.305 119.885L124.286 119.944Z" fill="#E0E0E0"/>
<path d="M115.859 123.612C115.228 121.314 117.953 113.684 118.834 113.408C119.716 113.132 125.792 117.954 126.528 120.381C126.634 120.864 126.607 121.367 126.45 121.836C126.294 122.304 126.014 122.721 125.64 123.041C124.658 123.997 123.462 124.703 122.152 125.1C120.842 125.498 119.455 125.576 118.106 125.328C117.621 125.257 117.161 125.061 116.773 124.759C116.385 124.457 116.081 124.058 115.892 123.603L115.859 123.612Z" fill="#F2F2F2"/>
<path d="M74.4487 80.9272C79.7699 98.4158 100.354 116.297 119.763 114.993C136.453 104.441 143.733 79.0854 138.445 61.5878C133.157 44.0901 116.783 31.2257 96.1929 37.4341C75.6026 43.6426 69.1186 63.4058 74.4487 80.9272Z" fill="white"/>
<path opacity="0.05" d="M139.547 70.4816C139.547 70.4816 139.901 88.9379 119.39 96.5533C99.5371 103.971 76.3798 86.7302 72.5356 71.8958C72.8076 74.7163 73.3587 77.5033 74.1807 80.2158C79.5475 97.8716 100.13 116.245 119.538 114.979C134.227 106.369 140.732 86.8432 139.789 70.522L139.547 70.4816Z" fill="black"/>
<path d="M133.697 184.626C134.385 185.836 134.965 187.094 135.429 188.388C135.65 189.667 135.95 190.935 136.327 192.184C137.454 194.671 138.819 197.065 140.406 199.339C141.933 201.647 143.818 203.828 145.281 206.194C146.594 208.405 147.511 210.788 148 213.256C148.09 213.649 148.937 213.672 148.847 213.256C148.493 210.93 147.727 208.67 146.576 206.563C145.178 204.105 143.228 201.947 141.663 199.558C139.992 197.215 138.554 194.744 137.366 192.173C136.776 190.777 136.789 189.299 136.301 187.892C135.81 186.713 135.254 185.558 134.634 184.43C134.416 183.968 133.453 184.199 133.697 184.718L133.697 184.626Z" fill="#E0E0E0"/>
<path d="M133.658 184.597C134.442 187.265 134.343 190.104 134.973 192.807C135.52 195.302 136.324 197.731 137.37 200.051C139.304 204.207 142.718 208.261 141.79 213.167C141.712 213.519 142.43 213.735 142.519 213.371C143.414 209.726 141.812 206.376 140.099 203.265C139.147 201.623 138.299 199.92 137.558 198.167C136.774 196.147 136.164 194.061 135.735 191.932C135.216 189.468 135.304 186.913 134.63 184.495C134.487 184.029 133.603 184.097 133.757 184.597L133.658 184.597Z" fill="#E0E0E0"/>
<path d="M133.723 184.659C134.368 185.892 134.912 187.173 135.35 188.489C135.824 189.593 136.447 190.63 137.203 191.574C138.737 193.762 140.406 195.858 142.203 197.848C145.444 201.526 148.996 205.344 150.084 210.222C150.18 210.617 150.957 210.641 150.873 210.163C150.024 205.24 146.496 201.387 143.255 197.72C141.393 195.673 139.663 193.515 138.076 191.259C137.269 190.242 136.624 189.112 136.163 187.907C135.745 186.701 135.22 185.533 134.596 184.415C134.369 183.973 133.4 184.205 133.723 184.718L133.723 184.659Z" fill="#E0E0E0"/>
<path d="M134.78 184.694C135.879 184.976 136.873 185.599 137.633 186.481C138.002 186.901 138.329 187.361 138.607 187.852C138.778 188.074 138.898 188.335 138.957 188.614C139.016 188.893 139.012 189.183 138.947 189.461C138.392 190.736 136.773 188.376 136.433 187.852C135.821 186.821 135.287 185.741 134.836 184.622L134.168 184.801C134.741 185.851 134.979 187.066 134.848 188.269C134.784 188.887 134.627 189.491 134.383 190.057C134.194 190.624 133.847 191.118 133.387 191.475C132.708 191.868 132.504 190.76 132.436 190.283C132.361 189.612 132.431 188.932 132.64 188.293C133.121 187.018 133.82 185.847 134.7 184.837C134.972 184.479 134.315 184.05 134.066 184.372C132.617 186.267 130.93 188.698 131.938 191.249C132.01 191.519 132.156 191.761 132.357 191.945C132.558 192.129 132.806 192.247 133.07 192.285C133.332 192.286 133.59 192.22 133.822 192.094C134.055 191.967 134.255 191.784 134.406 191.558C135.055 190.659 135.447 189.585 135.538 188.46C135.669 187.142 135.408 185.813 134.791 184.658C134.599 184.3 133.919 184.372 134.123 184.837C134.569 185.967 135.099 187.059 135.708 188.102C136.246 189.142 137.082 189.976 138.097 190.486C139.23 190.855 139.943 189.747 139.683 188.674C139.334 187.602 138.73 186.642 137.928 185.885C137.06 184.938 135.908 184.336 134.667 184.181C134.293 184.181 134.463 184.658 134.734 184.717L134.78 184.694Z" fill="#E0E0E0"/>
</svg>
