<svg width="151" height="158" viewBox="0 0 151 158" fill="none" xmlns="http://www.w3.org/2000/svg">
<path d="M50.9859 92.9256C49.993 91.3242 50.5702 84.8122 51.1638 84.3786C51.7575 83.9451 57.3636 86.3812 58.4516 88.0648C58.6307 88.4177 58.7131 88.8138 58.69 89.212C58.6669 89.6101 58.5392 89.9958 58.3203 90.3288C57.7576 91.2763 56.9848 92.0783 56.0643 92.67C55.1439 93.2618 54.1016 93.6267 53.0215 93.7352C52.6335 93.7937 52.2382 93.7463 51.8761 93.5979C51.5141 93.4496 51.1984 93.2057 50.9614 92.8911L50.9859 92.9256Z" fill="white"/>
<path opacity="0.3" d="M50.9859 92.9256C49.993 91.3242 50.5702 84.8122 51.1638 84.3786C51.7575 83.9451 57.3636 86.3812 58.4516 88.0648C58.6307 88.4177 58.7131 88.8138 58.69 89.212C58.6669 89.6101 58.5392 89.9958 58.3203 90.3288C57.7576 91.2763 56.9848 92.0783 56.0643 92.67C55.1439 93.2618 54.1016 93.6267 53.0215 93.7352C52.6335 93.7937 52.2382 93.7463 51.8761 93.5979C51.5141 93.4496 51.1984 93.2057 50.9614 92.8911L50.9859 92.9256Z" fill="black"/>
<path d="M11.3769 69.6126C18.9424 81.8709 38.0115 91.2242 52.2736 86.1487C62.6245 74.5472 62.9051 53.5962 55.311 41.2906C47.717 28.985 32.8346 22.6293 18.6991 31.7252C4.56357 40.821 3.81129 57.3544 11.3769 69.6126Z" fill="#A0466D"/>
<path opacity="0.1" d="M58.3739 48.5067C58.3739 48.5067 62.3569 62.3387 48.5462 72.5336C35.2347 82.3544 14.4645 74.2331 8.60504 63.7935C9.3701 65.8633 10.3375 67.8484 11.4928 69.719C19.0451 81.9529 38.0808 91.2877 52.318 86.2223C60.8876 76.6293 62.531 60.6296 58.5554 48.4619L58.3739 48.5067Z" fill="black"/>
<path d="M113.323 100.284C113.423 100.848 113.633 101.386 113.94 101.865C114.246 102.344 114.644 102.756 115.11 103.077C115.576 103.398 116.1 103.622 116.653 103.735C117.206 103.848 117.777 103.848 118.333 103.736C118.858 103.595 119.342 103.321 119.737 102.939C120.158 102.534 120.822 101.554 120.181 101.055C119.539 100.556 118.839 101.236 118.492 101.519C118.225 101.746 118.007 102.026 117.851 102.342C117.695 102.658 117.605 103.003 117.587 103.355C117.528 103.865 117.58 104.38 117.741 104.864C117.901 105.349 118.166 105.789 118.516 106.155C118.866 106.521 119.292 106.802 119.764 106.979C120.235 107.155 120.741 107.223 121.244 107.176C121.696 107.097 122.122 106.9 122.479 106.605C122.837 106.311 123.115 105.928 123.285 105.494C123.376 105.27 123.411 105.028 123.387 104.789C123.362 104.55 123.279 104.321 123.146 104.124C122.655 103.661 122.017 104.406 121.797 104.831C121.539 105.362 121.467 105.966 121.595 106.54C121.722 107.115 122.041 107.625 122.497 107.986C122.933 108.295 123.448 108.469 123.982 108.486C124.515 108.504 125.043 108.364 125.503 108.084C125.873 107.879 125.932 108.482 125.684 108.676C125.108 109.101 124.41 109.317 123.702 109.291C122.994 109.264 122.318 108.996 121.783 108.529C121.3 108.059 120.975 107.446 120.852 106.776C120.73 106.106 120.816 105.411 121.1 104.789C121.36 104.124 121.858 103.582 122.494 103.274C122.644 103.21 122.804 103.177 122.965 103.176C123.127 103.174 123.287 103.206 123.435 103.268C123.584 103.33 123.719 103.422 123.833 103.537C123.946 103.653 124.036 103.791 124.096 103.942C124.655 105.176 123.715 106.67 122.703 107.381C122.13 107.788 121.455 108.021 120.758 108.052C120.062 108.082 119.374 107.91 118.775 107.554C118.151 107.149 117.643 106.585 117.301 105.917C116.959 105.249 116.796 104.5 116.826 103.744C116.858 102.934 117.148 102.154 117.652 101.52C118.156 100.887 118.847 100.435 119.621 100.232C119.774 100.178 119.936 100.156 120.097 100.167C120.257 100.178 120.414 100.221 120.558 100.294C120.701 100.368 120.828 100.469 120.932 100.594C121.036 100.718 121.114 100.863 121.162 101.019C121.248 101.389 121.24 101.776 121.137 102.144C121.035 102.512 120.841 102.848 120.575 103.12C120.024 103.765 119.304 104.239 118.501 104.485C117.697 104.731 116.844 104.74 116.041 104.509C115.185 104.219 114.436 103.676 113.888 102.95C113.34 102.224 113.018 101.347 112.962 100.43C112.887 100.185 113.279 99.9587 113.369 100.297L113.323 100.284Z" fill="#E0E0E0"/>
<path d="M107.385 100.655C107.066 98.7922 109.981 92.9354 110.707 92.7983C111.433 92.6612 115.741 97.0186 116.083 99.0015C116.119 99.3965 116.049 99.7951 115.882 100.156C115.715 100.516 115.456 100.825 115.132 101.051C114.266 101.725 113.258 102.182 112.189 102.387C111.121 102.592 110.023 102.538 108.984 102.229C108.603 102.135 108.254 101.94 107.973 101.664C107.692 101.387 107.489 101.039 107.385 100.655Z" fill="white"/>
<path d="M107.385 100.655C107.066 98.7922 109.981 92.9354 110.707 92.7983C111.433 92.6612 115.741 97.0186 116.083 99.0015C116.119 99.3965 116.049 99.7951 115.882 100.156C115.715 100.516 115.456 100.825 115.132 101.051C114.266 101.725 113.258 102.182 112.189 102.387C111.121 102.592 110.023 102.538 108.984 102.229C108.603 102.135 108.254 101.94 107.973 101.664C107.692 101.387 107.489 101.039 107.385 100.655Z" fill="#FF917C"/>
<path d="M79.1884 64.0344C81.6888 78.3223 95.8847 94.2567 110.988 94.8943C124.708 87.9995 132.677 68.6098 130.176 54.3219C127.676 40.034 116.271 28.4712 99.8489 31.5598C83.4268 34.6485 76.6753 49.7506 79.1884 64.0344Z" fill="white"/>
<path d="M79.1884 64.0344C81.6888 78.3223 95.8847 94.2567 110.988 94.8943C124.708 87.9995 132.677 68.6098 130.176 54.3219C127.676 40.034 116.271 28.4712 99.8489 31.5598C83.4268 34.6485 76.6753 49.7506 79.1884 64.0344Z" fill="#FF917C"/>
<path opacity="0.05" d="M130.404 62.031C130.404 62.031 129.007 76.441 112.491 80.7217C96.5844 84.847 80.3451 69.4122 78.749 57.4458C78.694 59.6674 78.8633 61.8866 79.2542 64.0686C81.7522 78.3434 95.9345 94.2632 111.023 94.9002C122.457 89.2034 129.858 74.8915 130.63 62.0422L130.404 62.031Z" fill="black"/>
<path d="M93.4717 124.783C93.44 125.866 93.8009 126.918 94.4859 127.74C95.1709 128.562 96.132 129.096 97.1864 129.242C97.7114 129.309 98.2461 129.236 98.7373 129.029C99.2286 128.822 99.6592 128.489 99.9865 128.062C100.192 127.684 100.307 127.236 99.904 126.97C99.5883 126.823 99.2272 126.808 98.8982 126.929C98.2668 127.056 97.708 127.431 97.3434 127.972C97.0752 128.411 96.9026 128.901 96.8375 129.411C96.7723 129.922 96.8161 130.439 96.9658 130.928C97.1156 131.417 97.3677 131.866 97.7051 132.246C98.0425 132.625 98.4571 132.925 98.9208 133.125C99.3818 133.286 99.8769 133.325 100.359 133.238C100.842 133.15 101.295 132.94 101.677 132.626C102.058 132.331 102.312 131.898 102.385 131.419C102.451 130.859 102.197 130.304 101.531 130.549C101.002 130.822 100.59 131.285 100.377 131.846C100.163 132.408 100.163 133.029 100.377 133.587C100.637 134.228 101.132 134.741 101.759 135.017C102.386 135.294 103.095 135.313 103.741 135.071C104.122 134.947 104.045 135.61 103.79 135.735C103.103 136.042 102.332 136.09 101.618 135.87C100.904 135.65 100.294 135.176 99.8981 134.535C99.5821 133.937 99.4527 133.253 99.527 132.574C99.6012 131.895 99.8757 131.253 100.314 130.732C100.515 130.453 100.77 130.219 101.064 130.046C101.358 129.872 101.683 129.763 102.02 129.724C102.32 129.739 102.605 129.862 102.821 130.073C103.037 130.284 103.17 130.567 103.196 130.872C103.196 131.568 102.968 132.247 102.548 132.801C102.128 133.356 101.539 133.755 100.875 133.935C97.8092 134.931 95.3429 131.809 96.1917 128.871C96.4106 128.077 96.8826 127.376 97.5335 126.88C98.1843 126.384 98.977 126.12 99.7867 126.13C100.094 126.143 100.383 126.274 100.597 126.496C100.81 126.719 100.932 127.016 100.937 127.329C100.927 127.709 100.825 128.083 100.638 128.415C100.452 128.748 100.188 129.029 99.8695 129.233C99.1947 129.744 98.3894 130.045 97.553 130.097C96.7166 130.15 95.8857 129.953 95.1629 129.531C94.4084 129.045 93.8104 128.346 93.4406 127.519C93.0708 126.692 92.945 125.772 93.0783 124.869C93.1139 124.574 93.4811 124.54 93.4827 124.865L93.4717 124.783Z" fill="#E0E0E0"/>
<path d="M86.7513 127.823C86.0349 126.075 87.6596 119.746 88.3767 119.442C89.0937 119.139 94.1851 122.449 94.9496 124.309C95.0643 124.687 95.0788 125.091 94.9918 125.479C94.9047 125.868 94.7192 126.227 94.4536 126.521C93.7444 127.364 92.8516 128.026 91.8475 128.456C90.8435 128.886 89.7563 129.07 88.6741 128.994C88.2829 128.987 87.9019 128.873 87.5705 128.665C87.2391 128.457 86.9694 128.162 86.7894 127.81L86.7513 127.823Z" fill="#F1EDF2"/>
<path d="M51.4809 98.1898C56.9707 111.563 74.1929 124.008 89.0579 121.355C101.133 111.641 104.803 90.988 99.355 77.6157C93.9072 64.2433 80.2873 55.396 64.8405 61.9463C49.3938 68.4966 46.0292 84.8046 51.4809 98.1898Z" fill="#FEF9FF"/>
<path opacity="0.05" d="M101.192 85.1427C101.192 85.1427 102.86 99.4814 87.5984 107.241C72.8896 114.707 53.7695 103.202 49.6944 91.8927C50.1064 94.0681 50.7336 96.1936 51.5663 98.237C57.0483 111.59 74.2461 124.017 89.0899 121.368C99.0757 113.331 103.306 97.7958 101.361 85.1019L101.192 85.1427Z" fill="black"/>
</svg>
