<svg width="169" height="186" viewBox="0 0 169 186" fill="none" xmlns="http://www.w3.org/2000/svg">
<path d="M75.6098 108.626C72.1027 111.561 68.7143 115.043 65.5209 118.994C63.5531 121.566 61.8115 124.453 59.7803 127.121C57.9074 129.521 55.956 131.752 53.9436 133.793C51.868 135.895 49.749 137.843 47.5977 139.628C45.4267 141.558 43.1835 143.107 40.9286 144.233C38.646 145.128 36.3769 145.799 34.1366 146.243C31.9587 146.824 29.7524 147.719 27.5485 148.916C23.1 151.275 18.8933 154.785 15.3713 160.529C15.062 161.046 14.5533 160.546 14.9066 159.96C17.8999 155.161 21.5355 151.405 25.3349 149.187C27.303 147.975 29.2814 146.975 31.2525 146.194C33.5955 145.326 35.9234 144.926 38.2702 144.246C40.6906 143.542 43.1532 142.197 45.5399 140.274C47.7707 138.512 49.9735 136.588 52.138 134.511C54.2851 132.454 56.3724 130.185 58.38 127.728C60.3587 125.295 62.1483 122.611 63.9926 119.996C67.569 115.277 71.4749 111.276 75.5437 108.163C75.7919 107.963 75.828 108.398 75.6062 108.608L75.6098 108.626Z" fill="#E0E0E0"/>
<path d="M98.1126 91.1771C99.8505 89.2709 100.546 80.6362 99.7462 79.9845C98.9468 79.3328 90.4309 81.3204 88.5539 83.3406C88.2207 83.7653 88.0158 84.2664 87.9608 84.7911C87.9057 85.3158 88.0026 85.8447 88.2411 86.3221C88.8182 87.6821 89.7323 88.8938 90.9079 89.857C92.0834 90.8202 93.4867 91.5073 95.0017 91.8613C95.5387 92.013 96.1088 92.0297 96.6548 91.9096C97.2009 91.7895 97.7036 91.5369 98.1126 91.1771Z" fill="#BA68C8"/>
<path opacity="0.3" d="M98.1126 91.1771C99.8505 89.2709 100.546 80.6362 99.7462 79.9845C98.9468 79.3328 90.4309 81.3204 88.5539 83.3406C88.2207 83.7653 88.0158 84.2664 87.9608 84.7911C87.9057 85.3158 88.0026 85.8447 88.2411 86.3221C88.8182 87.6821 89.7323 88.8938 90.9079 89.857C92.0834 90.8202 93.4867 91.5073 95.0017 91.8613C95.5387 92.013 96.1088 92.0297 96.6548 91.9096C97.2009 91.7895 97.7036 91.5369 98.1126 91.1771Z" fill="black"/>
<path d="M158.178 67.9307C145.007 82.9399 116.527 91.5407 97.8799 81.7594C86.0983 63.8833 90.3363 35.4669 103.525 20.4408C116.714 5.41468 138.734 -0.150546 156.348 15.1454C173.961 30.4413 171.367 52.9046 158.178 67.9307Z" fill="#A0466D"/>
<path opacity="0.1" d="M97.8202 29.3991C97.8202 29.3991 89.2096 47.3148 106.193 64.0181C122.546 80.0984 153.279 73.4474 163.761 60.5326C162.239 63.1808 160.449 65.6688 158.418 67.9582C145.196 82.9441 116.607 91.5315 97.8883 81.7654C88.0865 66.9816 89.3798 44.9575 97.582 29.3149L97.8202 29.3991Z" fill="black"/>
<path d="M31.2554 87.3337C29.6264 91.3786 28.5163 95.7749 27.989 100.269C27.3191 105.13 26.7635 109.989 26.163 114.842C25.5453 119.512 24.5278 124.11 23.1366 128.521C21.7398 133.108 20.0571 137.534 18.9622 142.249C17.7697 147.675 16.8395 153.179 16.1791 158.716C16.0831 159.413 15.2334 159.451 15.3294 158.754C15.9395 153.926 16.7124 149.119 17.6452 144.353C18.7814 139.574 20.1482 134.889 21.7339 130.336C23.2326 125.849 24.3867 121.171 25.1721 116.402C25.8748 111.304 26.3648 106.176 27.1235 101.085C27.8822 95.994 28.7173 91.2601 30.9229 87.0971C31.1064 86.7588 31.4395 86.9089 31.2554 87.3337Z" fill="#E0E0E0"/>
<path d="M27.2483 88.337C27.0462 89.1401 26.6549 89.8802 26.1086 90.4926C25.5623 91.1049 24.8778 91.5709 24.1149 91.8496C23.3519 92.1283 22.5339 92.2113 21.7324 92.0913C20.9309 91.9714 20.1703 91.6521 19.5173 91.1614C18.4435 90.2651 17.4358 88.2863 18.873 87.2377C20.3102 86.1891 21.9952 88.1002 22.4247 89.3349C22.6569 90.1443 22.6664 91.0037 22.4522 91.8183C22.2379 92.633 21.8082 93.3713 21.2103 93.9519C20.6125 94.5325 19.8697 94.9329 19.0638 95.109C18.2579 95.2851 17.4202 95.23 16.6429 94.9499C15.9154 94.6577 15.3049 94.1237 14.9094 93.4335C14.514 92.7434 14.3565 91.9373 14.4623 91.1445C14.5397 90.799 14.7086 90.482 14.9505 90.2284C15.1924 89.9748 15.4979 89.7944 15.8335 89.7069C16.1704 89.6724 16.5096 89.7447 16.8051 89.9142C17.1006 90.0836 17.3381 90.3419 17.4854 90.654C17.9046 91.3878 18.0582 92.2491 17.9192 93.0871C17.7803 93.9252 17.3577 94.6864 16.7255 95.2374C16.0807 95.7793 15.2647 96.0612 14.4311 96.0301C13.5974 95.9989 12.8037 95.6569 12.1992 95.0683C11.9514 94.7808 12.4305 94.2565 12.7278 94.4932C13.1664 94.8645 13.6994 95.1 14.2642 95.1719C14.8289 95.2438 15.402 95.1491 15.916 94.8991C16.4051 94.5929 16.7828 94.1312 16.9916 93.5846C17.2004 93.038 17.2288 92.4364 17.0724 91.8718C16.9735 91.3703 16.7043 90.9209 16.3125 90.6033C15.9491 90.3496 15.5857 90.7048 15.4535 91.06C15.4044 91.2941 15.4044 91.5362 15.4535 91.7703C15.5304 92.2782 15.727 92.7592 16.0264 93.1718C16.3257 93.5844 16.7188 93.916 17.1715 94.1381C17.6814 94.3298 18.2288 94.3938 18.7678 94.3247C19.3068 94.2556 19.8218 94.0554 20.2697 93.7408C20.7177 93.4262 21.0856 93.0064 21.3427 92.5165C21.5997 92.0265 21.7385 91.4807 21.7474 90.9247C21.801 90.3085 21.6721 89.6901 21.3774 89.1501C21.0828 88.6101 20.636 88.1735 20.0954 87.8973C19.7981 87.7451 19.7981 87.7451 19.4677 87.8973C19.1373 88.0495 19.0712 88.151 19.1208 88.6245C19.1632 88.8848 19.2469 89.1361 19.3686 89.3687C19.6225 89.8536 19.9779 90.2752 20.4093 90.6033C22.8707 92.4637 25.8112 90.7386 26.8684 88.1679C27.0006 87.8634 27.364 87.9649 27.2814 88.3032L27.2483 88.337Z" fill="#E0E0E0"/>
<path d="M36.2369 88.239C37.0324 85.9992 34.5443 78.1681 33.5796 77.8529C32.6148 77.5376 26.2169 82.1168 25.3537 84.4894C25.2338 84.9729 25.2457 85.4789 25.3883 85.9565C25.5309 86.434 25.7992 86.8665 26.1661 87.2103C27.1452 88.2321 28.3605 89.0081 29.7096 89.473C31.0587 89.9379 32.5021 90.078 33.9181 89.8815C34.4309 89.8394 34.9228 89.6633 35.3425 89.3715C35.7623 89.0797 36.0945 88.6829 36.3046 88.2224L36.2369 88.239Z" fill="#FF917C"/>
<path d="M80.5134 47.5722C74.3271 65.2927 52.6582 82.8087 33.0457 80.6959C16.5773 69.1776 10.306 42.8524 16.4923 25.1319C22.6786 7.41146 39.8268 -5.14623 60.459 2.07827C81.0913 9.30278 86.6997 29.8858 80.5134 47.5722Z" fill="#FF917C"/>
<path d="M14.664 34.3696C14.664 34.3696 13.5196 52.9078 33.8326 61.469C53.4051 69.7775 77.4038 53.4471 81.8804 38.6503C81.4982 41.4684 80.8329 44.2407 79.8945 46.925C73.7686 64.452 52.3112 81.7767 32.8901 79.687C19.4267 70.2494 12.8127 50.7506 14.3779 34.3696H14.664Z" fill="#F28A76"/>
<path d="M44.3838 118.59C42.1649 125.474 36.9499 128.975 32.7131 132.355C27.9731 136.107 23.3211 140.767 19.8764 147.248C18.0473 150.787 16.5367 154.588 15.3978 158.519C15.1958 159.197 14.3894 159.117 14.5914 158.439C16.4169 151.913 19.3364 145.799 23.0287 140.77C24.985 138.239 27.0821 135.988 29.2766 134.065C31.5397 132.04 33.8994 130.368 36.1946 128.461C39.2569 125.937 42.0681 123.013 43.9925 118.473C44.0812 118.175 44.5316 118.094 44.3981 118.504L44.3838 118.59Z" fill="#E0E0E0"/>
<path d="M45.4886 118.465C45.4567 119.263 45.2134 120.041 44.7804 120.731C44.3475 121.42 43.7382 121.999 43.0068 122.417C42.2755 122.834 41.4447 123.076 40.5884 123.122C39.7321 123.168 38.8769 123.017 38.0988 122.681C36.8324 122.051 35.2018 120.226 36.7977 119.063C37.148 118.864 37.5501 118.76 37.96 118.76C38.3699 118.76 38.7719 118.864 39.1222 119.063C40.0383 119.459 40.7534 120.172 41.1171 121.049C41.3911 121.768 41.4589 122.54 41.3139 123.29C41.1689 124.04 40.8161 124.742 40.2904 125.326C39.7647 125.91 39.0843 126.356 38.3166 126.62C37.5488 126.885 36.7203 126.957 35.913 126.832C35.1556 126.689 34.4653 126.328 33.9394 125.801C33.4135 125.274 33.0784 124.606 32.9814 123.892C32.968 123.587 33.0481 123.284 33.2121 123.019C33.3762 122.755 33.6176 122.539 33.9083 122.396C34.199 122.254 34.527 122.192 34.8542 122.217C35.1814 122.241 35.4945 122.352 35.7569 122.535C36.4219 123.099 36.8373 123.873 36.9216 124.706C37.0059 125.539 36.7531 126.372 36.2127 127.041C35.6723 127.71 34.8832 128.167 34 128.322C33.1167 128.478 32.2029 128.321 31.4375 127.882C31.1252 127.672 31.6109 127.155 31.9232 127.284C32.451 127.548 33.0512 127.66 33.6474 127.605C34.2436 127.551 34.8088 127.332 35.2712 126.977C35.6753 126.617 35.9529 126.151 36.0674 125.64C36.182 125.13 36.1282 124.6 35.913 124.118C35.7049 123.65 35.1845 122.875 34.5773 122.826C33.9702 122.778 33.9702 123.892 34.1436 124.296C34.3493 124.743 34.6682 125.136 35.0731 125.443C35.4779 125.749 35.9566 125.96 36.4681 126.057C37.1743 126.089 37.8757 125.934 38.4914 125.61C39.1071 125.287 39.6119 124.807 39.9475 124.228C40.2831 123.649 40.4359 122.993 40.388 122.336C40.3402 121.679 40.0938 121.048 39.6773 120.516C39.429 120.202 39.0967 119.953 38.7134 119.794C38.3301 119.635 37.909 119.573 37.4916 119.612C37.0926 119.709 37.0406 119.854 37.0926 120.242C37.0852 120.328 37.0852 120.414 37.0926 120.5C37.2244 120.769 37.4132 121.011 37.6477 121.211C38.0129 121.607 38.4695 121.922 38.9834 122.132C41.8457 123.262 44.4478 121.13 44.9855 118.562C44.9855 118.287 45.5059 118.077 45.4886 118.562V118.465Z" fill="#E0E0E0"/>
<path d="M51.5544 114.531L50.8879 122.241C50.8879 122.241 48.9058 124.883 43.8715 121.923C39.6616 119.381 40.5036 116.688 40.5036 116.688L47.0113 112.207C48.4002 113.186 49.9304 113.969 51.5544 114.531Z" fill="white"/>
<path d="M79.289 56.7654C94.0021 52.4943 109.405 59.8162 111.944 76.8329C114.584 94.4597 97.4659 114.544 56.034 115.239C53.3881 115.234 50.7977 114.473 48.5628 113.046C46.3279 111.618 44.54 109.581 43.406 107.171C33.7543 87.6802 32.3755 67.1212 41.6405 53.4095C52.3516 37.5454 75.5393 42.1555 79.289 56.7654Z" fill="white"/>
<path d="M65.7068 44.4785C68.7885 45.1568 71.6342 46.6642 73.9461 48.843C76.2579 51.0218 77.951 53.7919 78.8481 56.8635C76.3217 57.5463 73.9982 58.8471 72.0804 60.6524C72.8196 56.6966 73.7559 48.2174 65.7068 44.4785Z" fill="#E0E0E0"/>
<path d="M103.788 92.6081C111.436 81.596 109.089 66.4524 103.788 61.6631C108.291 65.619 111.191 71.0829 111.943 77.026C114.593 94.5643 97.4058 114.548 55.8049 115.239C55.0594 115.24 54.3148 115.189 53.5763 115.087C81.8393 114.227 96.8993 102.541 103.788 92.6081Z" fill="#E0E0E0"/>
<path d="M17.1459 157.129C16.4591 158.336 15.8812 159.592 15.4178 160.883C15.1968 162.159 14.8976 163.424 14.5218 164.671C13.3967 167.152 12.0348 169.541 10.4513 171.811C8.92805 174.114 7.04639 176.29 5.58715 178.651C4.27695 180.857 3.36117 183.235 2.87347 185.698C2.78387 186.089 1.93905 186.113 2.02865 185.698C2.38153 183.377 3.14649 181.122 4.29431 179.019C5.68955 176.566 7.63521 174.413 9.19685 172.029C10.8645 169.691 12.2994 167.225 13.485 164.66C14.0738 163.266 14.061 161.792 14.5474 160.388C15.0373 159.212 15.5927 158.059 16.2115 156.933C16.4291 156.472 17.3891 156.703 17.1459 157.221V157.129Z" fill="#E0E0E0"/>
<path d="M17.1851 157.1C16.4023 159.763 16.5015 162.596 15.8731 165.292C15.3271 167.782 14.5251 170.206 13.4807 172.521C11.5514 176.669 8.14467 180.714 9.07075 185.609C9.14793 185.96 8.43132 186.175 8.34312 185.813C7.4501 182.175 9.0487 178.833 10.7576 175.728C11.7073 174.089 12.5542 172.39 13.2933 170.641C14.0755 168.626 14.6842 166.544 15.1124 164.42C15.6306 161.961 15.5424 159.412 16.2149 156.998C16.3582 156.533 17.2402 156.601 17.0858 157.1H17.1851Z" fill="#E0E0E0"/>
<path d="M17.1199 157.162C16.4763 158.392 15.9336 159.67 15.4969 160.984C15.0235 162.085 14.4015 163.12 13.6471 164.062C12.117 166.246 10.4511 168.337 8.65872 170.323C5.4246 173.993 1.88018 177.803 0.794188 182.67C0.698716 183.065 -0.0769918 183.088 0.00654644 182.612C0.853863 177.698 4.37441 173.854 7.60853 170.195C9.46674 168.152 11.1925 165.999 12.776 163.748C13.5814 162.733 14.2251 161.605 14.6854 160.403C15.1029 159.2 15.626 158.034 16.2488 156.918C16.4755 156.477 17.4422 156.709 17.1199 157.22V157.162Z" fill="#E0E0E0"/>
<path d="M16.0658 157.196C14.9687 157.478 13.9769 158.1 13.2185 158.98C12.8502 159.399 12.5245 159.858 12.2468 160.348C12.076 160.57 11.9566 160.83 11.8977 161.109C11.8389 161.387 11.8423 161.677 11.9078 161.953C12.4614 163.226 14.0772 160.871 14.4162 160.348C15.0271 159.32 15.5599 158.242 16.0094 157.125L16.676 157.303C16.105 158.351 15.8674 159.564 15.9981 160.764C16.0617 161.381 16.218 161.983 16.4613 162.548C16.6501 163.114 16.9966 163.608 17.4556 163.963C18.1336 164.356 18.337 163.25 18.4048 162.774C18.4793 162.104 18.4098 161.426 18.2014 160.788C17.7209 159.516 17.024 158.348 16.1449 157.339C15.8738 156.982 16.5291 156.554 16.7777 156.875C18.224 158.766 19.9075 161.192 18.9019 163.737C18.8296 164.007 18.6842 164.248 18.4835 164.432C18.2828 164.616 18.0356 164.734 17.772 164.772C17.5108 164.773 17.2532 164.707 17.0211 164.581C16.7891 164.454 16.5893 164.271 16.4387 164.047C15.7914 163.149 15.3995 162.077 15.3088 160.955C15.1782 159.639 15.4388 158.314 16.0546 157.161C16.2466 156.804 16.9246 156.875 16.7212 157.339C16.2758 158.467 15.7468 159.557 15.1393 160.598C14.6028 161.635 13.7683 162.468 12.7552 162.976C11.6253 163.345 10.9135 162.239 11.1734 161.169C11.5214 160.099 12.1244 159.14 12.9247 158.386C13.7903 157.44 14.9401 156.839 16.1788 156.685C16.5517 156.685 16.3822 157.161 16.111 157.22L16.0658 157.196Z" fill="#E0E0E0"/>
</svg>
