<svg width="210" height="170" viewBox="0 0 210 170" fill="none" xmlns="http://www.w3.org/2000/svg">
<path d="M67.2161 113.883C71.3146 119.063 75.4925 124.254 78.9393 130.294C79.855 131.912 80.6478 133.576 81.6287 135.144C82.5924 136.742 83.6124 138.29 84.6799 139.772C86.7629 142.688 88.9919 145.372 91.3116 147.758C95.7434 152.292 100.46 154.995 104.812 159.833C109.633 165.185 112.861 172.637 117.356 178.454C122.392 184.977 129.44 189.659 132.732 198.325C132.976 198.989 133.671 198.825 133.419 198.147C130.552 190.598 124.791 185.852 120.136 180.678C117.664 177.836 115.366 174.613 113.34 171.144C111.405 167.765 109.307 164.514 107.079 161.441C102.793 155.85 97.911 152.916 93.3269 148.706C88.4469 144.13 83.9397 138.147 80.3327 131.456C76.6556 124.727 72.0952 119.048 67.4694 113.648C67.2529 113.391 66.9564 113.525 67.2378 113.872L67.2161 113.883Z" fill="#E0E0E0"/>
<path d="M68.6347 113.419C69.3393 114.46 69.6395 115.712 69.4848 116.961C69.33 118.211 68.7297 119.382 67.7852 120.278C67.2822 120.703 66.6868 121.016 66.0446 121.191C65.4025 121.367 64.7306 121.401 64.0803 121.29C63.0268 121.08 62.3112 120.057 63.5758 119.454C64.3597 119.016 65.2826 118.881 66.1515 119.076C66.7712 119.288 67.3319 119.628 67.7948 120.071C68.2578 120.514 68.6121 121.05 68.8333 121.642C69.0545 122.234 69.1374 122.869 69.0762 123.501C69.015 124.134 68.8113 124.75 68.479 125.307C68.1513 125.797 67.7076 126.209 67.1848 126.507C66.662 126.805 66.0753 126.981 65.4737 127.021C64.9045 127.071 64.3371 126.957 63.8449 126.694C63.2124 126.369 62.3269 125.254 63.4582 124.825C64.9344 124.267 66.5746 125.69 66.9205 126.883C67.0244 127.312 67.037 127.758 66.9577 128.196C66.8784 128.634 66.7087 129.054 66.4585 129.433C66.2084 129.811 65.8829 130.14 65.5011 130.401C65.1192 130.661 64.6888 130.847 64.2351 130.948C63.7467 131.081 64.2641 131.712 64.6309 131.663C65.5994 131.505 66.4854 131.022 67.1279 130.302C67.7704 129.581 68.1269 128.671 68.1326 127.737C68.0706 126.89 67.7409 126.089 67.1869 125.437C66.633 124.785 65.8808 124.315 65.0296 124.087C64.6136 123.94 64.1663 123.884 63.7199 123.923C63.2735 123.962 62.8392 124.095 62.4481 124.311C62.1566 124.565 61.9603 124.903 61.8906 125.271C61.8209 125.639 61.8819 126.015 62.0637 126.339C62.5554 127.042 63.282 127.562 64.1292 127.819C64.9764 128.075 65.8962 128.053 66.7437 127.756C70.8528 126.633 71.3107 121.512 68.2132 119.199C67.4277 118.571 66.4389 118.215 65.4023 118.187C64.3656 118.16 63.3399 118.462 62.4865 119.048C62.1719 119.296 61.9641 119.647 61.9046 120.029C61.8452 120.411 61.9385 120.797 62.1659 121.11C62.4599 121.476 62.8409 121.771 63.2789 121.97C63.7168 122.169 64.1998 122.267 64.6898 122.257C65.7654 122.285 66.8352 122.02 67.774 121.493C68.7129 120.966 69.482 120.198 69.9915 119.28C70.4973 118.257 70.6865 117.124 70.5365 116.016C70.3865 114.909 69.9036 113.875 69.1459 113.039C68.9066 112.761 68.4782 112.981 68.697 113.316L68.6347 113.419Z" fill="#E0E0E0"/>
<path d="M63.8434 115.274C62.5563 113.294 63.2366 105.208 64.0555 104.775C64.8744 104.343 72.0684 107.214 73.4284 109.331C73.6615 109.767 73.7706 110.258 73.7445 110.752C73.7183 111.246 73.5577 111.725 73.2796 112.138C72.5687 113.323 71.5846 114.328 70.4078 115.069C69.2309 115.811 67.8947 116.27 66.5081 116.407C66.015 116.485 65.5107 116.431 65.0477 116.252C64.5846 116.072 64.1795 115.774 63.8745 115.387L63.8434 115.274Z" fill="#A0466D"/>
<path d="M13.662 86.034C23.4443 101.196 48.0089 112.751 66.1267 106.307C79.2567 91.8647 79.4506 65.9538 69.6342 50.7321C59.8178 35.5104 40.7665 27.6924 22.7305 39.0641C4.69448 50.4358 3.86339 70.8769 13.662 86.034Z" fill="#A0466D"/>
<path opacity="0.1" d="M72.4086 59.2751C72.4086 59.2751 77.632 76.6995 60.3588 89.4893C43.6468 101.844 17.1142 91.4761 9.55237 78.3731C10.5608 80.9811 11.832 83.4794 13.346 85.8285C23.1 101.257 47.4965 113.125 65.3893 106.72C76.0447 94.6814 77.8962 74.5483 72.6404 59.2293L72.4086 59.2751Z" fill="black"/>
<path d="M141.648 109.155C141.901 115.488 141.775 121.783 141.273 127.933C140.969 131.023 140.549 134.054 140.015 137.007C139.44 140.046 138.757 143.094 138.38 146.383C136.913 158.463 139.518 171.674 137.591 183.585C136.498 190.315 133.733 194.878 130.886 199.269C130.561 199.776 131.128 200.517 131.41 200.088C133.865 196.3 136.365 192.358 137.688 186.922C139.011 181.487 139.136 175.292 138.998 169.256C138.843 162.742 138.371 156.138 138.788 149.738C139.062 146.374 139.534 143.103 140.197 139.978C140.801 136.971 141.292 133.879 141.666 130.721C142.443 123.79 142.563 116.567 142.024 109.33C141.998 109.034 141.634 108.708 141.644 109.11L141.648 109.155Z" fill="#E0E0E0"/>
<path d="M146.335 108.62C146.307 109.634 146.543 110.64 147.018 111.537C147.493 112.435 148.191 113.193 149.042 113.735C149.894 114.278 150.869 114.586 151.87 114.63C152.872 114.673 153.865 114.45 154.75 113.982C156.076 113.25 157.87 110.875 155.868 109.714C155.42 109.542 154.94 109.478 154.465 109.525C153.991 109.572 153.534 109.73 153.131 109.986C152.181 110.462 151.452 111.292 151.096 112.304C150.791 113.16 150.715 114.084 150.875 114.984C151.035 115.883 151.426 116.727 152.007 117.429C152.588 118.132 153.341 118.669 154.188 118.988C155.036 119.306 155.949 119.393 156.837 119.242C157.677 119.083 158.445 118.663 159.036 118.041C159.626 117.419 160.01 116.625 160.135 115.769C160.172 115.368 160.081 114.964 159.877 114.616C159.673 114.267 159.365 113.993 158.998 113.833C158.631 113.672 158.224 113.633 157.836 113.722C157.448 113.811 157.099 114.023 156.84 114.327C156.126 115.011 155.685 115.939 155.601 116.935C155.516 117.931 155.794 118.927 156.383 119.736C157.005 120.513 157.877 121.045 158.845 121.235C159.812 121.425 160.812 121.263 161.666 120.776C162.05 120.53 161.441 119.956 161.1 120.103C160.479 120.404 159.778 120.496 159.099 120.365C158.42 120.234 157.798 119.886 157.324 119.373C156.949 118.896 156.712 118.323 156.642 117.72C156.571 117.116 156.669 116.507 156.924 115.96C157.039 115.623 157.238 115.322 157.502 115.087C157.765 114.851 158.084 114.689 158.429 114.615C158.784 114.518 158.816 114.632 158.935 115.005C158.989 115.137 159.026 115.274 159.048 115.414C159.055 115.788 158.979 116.159 158.825 116.497C158.553 117.025 158.156 117.476 157.671 117.811C157.185 118.147 156.625 118.356 156.039 118.421C153.274 118.718 151.474 115.512 152.083 113.055C152.216 112.357 152.562 111.72 153.074 111.236C153.586 110.752 154.236 110.444 154.934 110.356C156.053 110.262 155.718 111.569 155.302 112.14C154.856 112.77 154.231 113.248 153.51 113.511C150.367 114.705 147.516 111.908 147.02 108.838C146.952 108.592 146.423 108.244 146.409 108.635L146.335 108.62Z" fill="#E0E0E0"/>
<path d="M139.094 109.927C138.899 107.571 143.242 100.71 144.165 100.65C145.088 100.59 149.995 106.547 150.198 109.058C150.195 109.554 150.061 110.04 149.807 110.465C149.554 110.89 149.191 111.24 148.757 111.476C147.59 112.189 146.271 112.616 144.906 112.722C143.542 112.828 142.171 112.61 140.905 112.086C140.438 111.922 140.023 111.635 139.705 111.255C139.386 110.875 139.175 110.416 139.094 109.927Z" fill="#FF917C"/>
<path d="M108.31 60.0899C109.731 78.0119 125.671 99.5087 144.569 102.32C162.826 95.5971 175.24 72.7672 173.851 54.8363C172.462 36.9054 159.487 21.1006 138.377 22.7948C117.267 24.489 106.921 42.159 108.31 60.0899Z" fill="#FF917C"/>
<path opacity="0.05" d="M172.498 64.7127C172.498 64.7127 169.054 82.5139 147.742 85.5428C127.224 88.4779 108.582 66.9551 107.989 51.7867C107.653 54.5534 107.597 57.349 107.823 60.1302C109.324 78.2854 125.316 100.128 144.169 103.063C159.249 97.5351 170.234 80.7147 172.708 64.7784L172.498 64.7127Z" fill="black"/>
<path d="M117.926 129.619C118.86 133.048 119.89 136.424 120.733 139.888C121.3 142.192 121.788 144.519 122.193 146.851C122.584 149.263 122.89 151.67 123.108 154.057C123.489 158.803 124.437 163.666 125.884 168.291C127.253 173.065 128.834 177.73 130.116 182.555C131.598 187.692 132.42 193.062 132.499 198.133C132.49 198.81 133.16 199.06 133.169 198.414C133.228 189.198 129.969 179.703 127.269 170.776C126.495 168.288 125.79 165.76 125.159 163.205C124.592 160.75 124.179 158.265 123.929 155.808C123.656 153.414 123.459 151.019 123.093 148.615C122.726 146.211 122.248 143.807 121.667 141.43C120.691 137.424 119.545 133.479 118.242 129.641C118.177 129.349 117.806 129.216 117.938 129.708L117.926 129.619Z" fill="#E0E0E0"/>
<path d="M122.749 133.589C122.541 134.552 122.581 135.554 122.864 136.501C123.146 137.448 123.663 138.308 124.364 139C125.066 139.693 125.929 140.194 126.872 140.456C127.816 140.719 128.808 140.735 129.755 140.502C131.149 140.121 133.373 138.507 132.092 136.827C130.811 135.146 127.954 136.421 126.912 137.766C126.316 138.486 125.931 139.36 125.799 140.292C125.667 141.224 125.793 142.176 126.163 143.044C126.533 143.912 127.133 144.661 127.896 145.209C128.659 145.756 129.556 146.08 130.486 146.146C131.324 146.213 132.161 146.034 132.897 145.633C133.634 145.231 134.239 144.623 134.64 143.881C134.856 143.531 134.951 143.117 134.91 142.704C134.868 142.292 134.692 141.904 134.409 141.601C134.127 141.299 133.754 141.099 133.349 141.033C132.943 140.967 132.529 141.038 132.17 141.237C131.216 141.668 130.468 142.46 130.088 143.445C129.707 144.429 129.723 145.528 130.132 146.507C130.586 147.408 131.339 148.119 132.258 148.514C133.177 148.91 134.203 148.964 135.153 148.666C135.623 148.538 135.107 147.867 134.742 147.931C134.104 148.074 133.436 148.011 132.832 147.753C132.228 147.494 131.717 147.053 131.37 146.489C131.023 145.925 130.858 145.268 130.898 144.608C130.938 143.948 131.18 143.318 131.591 142.807C131.792 142.556 132.034 142.341 132.305 142.171C132.686 141.908 133.261 141.715 133.639 142.142C134.018 142.568 133.379 143.731 133.085 144.058C132.684 144.491 132.181 144.813 131.622 144.997C131.064 145.18 130.467 145.219 129.888 145.109C127.29 144.6 126.298 141.305 127.298 139.108C127.587 138.472 128.039 137.928 128.608 137.532C129.105 137.184 130.806 136.525 131.31 137.217C131.814 137.909 130.95 138.763 130.453 139.11C129.819 139.554 129.07 139.801 128.296 139.824C125.061 139.913 123.236 136.757 123.383 133.804C123.306 133.525 122.863 133.116 122.768 133.531L122.749 133.589Z" fill="#E0E0E0"/>
<path d="M114.43 137.209C113.807 134.941 116.497 127.409 117.367 127.137C118.237 126.865 124.235 131.624 124.962 134.02C125.066 134.497 125.04 134.994 124.885 135.456C124.731 135.919 124.454 136.33 124.085 136.646C123.116 137.589 121.935 138.286 120.642 138.678C119.349 139.071 117.98 139.148 116.648 138.903C116.169 138.834 115.715 138.64 115.332 138.342C114.949 138.043 114.649 137.65 114.462 137.2L114.43 137.209Z" fill="white"/>
<path d="M73.5525 95.0747C78.8052 112.338 99.1243 129.99 118.283 128.702C134.759 118.286 141.946 93.2566 136.726 75.9841C131.506 58.7116 115.342 46.0126 95.0169 52.1412C74.6916 58.2698 68.2909 77.7788 73.5525 95.0747Z" fill="white"/>
<path opacity="0.05" d="M137.813 86.0262C137.813 86.0262 138.163 104.245 117.916 111.762C98.3179 119.085 75.4585 102.066 71.6638 87.4222C71.9323 90.2064 72.4763 92.9575 73.2878 95.6352C78.5855 113.064 98.9522 130.922 118.11 129.673C131.748 120.994 138.982 102.177 138.052 86.0661L137.813 86.0262Z" fill="black"/>
</svg>
