<svg width="24" height="24" viewBox="0 0 24 24" fill="none" xmlns="http://www.w3.org/2000/svg">
<path fill-rule="evenodd" clip-rule="evenodd" d="M7.30905 8C7.31942 8 7.32982 8 7.34026 8H16.691C17.1009 7.99998 17.456 7.99995 17.7427 8.03718C18.0507 8.07719 18.3466 8.1671 18.5955 8.39618C18.8445 8.62525 18.9586 8.91257 19.0241 9.2163C19.085 9.49887 19.1145 9.85267 19.1485 10.2613L19.3778 13.013C19.4973 14.4469 19.5902 15.5614 19.5741 16.4502C19.5578 17.3525 19.4297 18.0815 19.0655 18.7228C18.7274 19.318 18.2579 19.8282 17.6927 20.2146C17.084 20.6309 16.3682 20.8191 15.4703 20.9101C14.5858 21 13.4677 21 12.0287 21H11.9712C10.5324 21 9.41413 21 8.52964 20.9101C7.63184 20.8191 6.91596 20.6309 6.3072 20.2146C5.7421 19.8282 5.2726 19.318 4.93447 18.7228C4.5702 18.0815 4.44219 17.3525 4.42588 16.4502C4.40982 15.5614 4.50268 14.4469 4.62218 13.013L4.8489 10.2924C4.84976 10.282 4.85062 10.2716 4.85149 10.2613C4.88552 9.85267 4.91498 9.49887 4.97588 9.2163C5.04134 8.91257 5.15551 8.62525 5.40446 8.39618C5.65342 8.1671 5.94922 8.07719 6.25735 8.03718C6.544 7.99995 6.89902 7.99998 7.30905 8ZM6.38612 9.02886C6.18574 9.05487 6.11966 9.09702 6.08157 9.13206C6.0435 9.1671 5.996 9.22946 5.95344 9.42698C5.90785 9.63852 5.88283 9.92676 5.84545 10.3754L5.62111 13.0674C5.49873 14.536 5.41068 15.5999 5.42571 16.4321C5.44063 17.2569 5.55732 17.7946 5.80396 18.2288C6.06696 18.6918 6.43212 19.0887 6.87164 19.3891C7.28384 19.671 7.81004 19.8319 8.63068 19.9153C9.45877 19.9994 10.5263 20.0001 11.9999 20.0001C13.4737 20.0001 14.5412 19.9994 15.3693 19.9153C16.19 19.8319 16.7162 19.671 17.1284 19.3891C17.5678 19.0887 17.933 18.6918 18.196 18.2288C18.4426 17.7946 18.5594 17.2569 18.5743 16.4321C18.5893 15.5999 18.5013 14.536 18.3789 13.0674L18.1545 10.3754C18.1172 9.92676 18.0921 9.63852 18.0465 9.42698C18.004 9.22946 17.9565 9.1671 17.9185 9.13206C17.8803 9.09702 17.8143 9.05487 17.6139 9.02886C17.3992 9.00098 17.1099 9 16.6598 9H7.34026C6.89004 9 6.6007 9.00098 6.38612 9.02886Z" fill="#495067"/>
<path fill-rule="evenodd" clip-rule="evenodd" d="M9 6.50001V7H8V6.50001C8 4.29087 9.79086 2.5 12 2.5C14.2091 2.5 16 4.29087 16 6.50001V7H15V6.50001C15 4.84314 13.6569 3.50001 12 3.50001C10.3431 3.50001 9 4.84314 9 6.50001Z" fill="#495067"/>
<path fill-rule="evenodd" clip-rule="evenodd" d="M8.49999 10.5C8.77614 10.5 9 10.7239 9 11V12.5C9 12.7762 8.77614 13 8.49999 13C8.22386 13 8 12.7762 8 12.5V11C8 10.7239 8.22386 10.5 8.49999 10.5Z" fill="#495067"/>
<path fill-rule="evenodd" clip-rule="evenodd" d="M15.5 10.5C15.7762 10.5 16 10.7239 16 11V12.5C16 12.7762 15.7762 13 15.5 13C15.2238 13 15 12.7762 15 12.5V11C15 10.7239 15.2238 10.5 15.5 10.5Z" fill="#495067"/>
</svg>
