<svg width="24" height="24" viewBox="0 0 24 24" fill="none" xmlns="http://www.w3.org/2000/svg">
<path fill-rule="evenodd" clip-rule="evenodd" d="M9.00006 8V6.5C9.00006 4.84315 10.3432 3.5 12.0001 3.5C13.657 3.5 15.0001 4.84315 15.0001 6.5V8H16.0001V6.5C16.0001 4.29086 14.2092 2.5 12.0001 2.5C9.79092 2.5 8.00006 4.29086 8.00006 6.5V8H6.85214C5.97351 8 5.5342 8 5.24666 8.26628C4.95911 8.53256 4.92542 8.97057 4.85803 9.84661L4.61365 13.0236C4.35058 16.4434 4.21905 18.1534 5.07607 19.3409C5.26649 19.6047 5.48839 19.8443 5.73686 20.0544C6.85513 21 8.57011 21 12.0001 21C15.4301 21 17.1451 21 18.2633 20.0544C18.5118 19.8443 18.7337 19.6047 18.9241 19.3409C19.7811 18.1534 19.6496 16.4434 19.3865 13.0236L19.1422 9.84661C19.0748 8.97057 19.0411 8.53256 18.7535 8.26628C18.466 8 18.0267 8 17.1481 8H9.00006Z" fill="#A0466D"/>
</svg>
