<svg width="24" height="24" viewBox="0 0 24 24" fill="none" xmlns="http://www.w3.org/2000/svg">
<path d="M12 3C7.041 3 3 7.041 3 12C3 16.959 7.041 21 12 21C16.959 21 21 16.959 21 12C21 7.041 16.959 3 12 3ZM15.915 15.213C15.789 15.429 15.564 15.546 15.33 15.546C15.213 15.546 15.096 15.519 14.988 15.447L12.198 13.782C11.505 13.368 10.992 12.459 10.992 11.658V7.968C10.992 7.599 11.298 7.293 11.667 7.293C12.036 7.293 12.342 7.599 12.342 7.968V11.658C12.342 11.982 12.612 12.459 12.891 12.621L15.681 14.286C16.005 14.475 16.113 14.889 15.915 15.213Z" fill="#495067"/>
</svg>
