<svg width="328" height="167" viewBox="0 0 328 167" fill="none" xmlns="http://www.w3.org/2000/svg">
<g filter="url(#filter0_d_19_722)">
<mask id="path-1-inside-1_19_722" fill="white">
<path fill-rule="evenodd" clip-rule="evenodd" d="M308 -4H20V80.8558L20.0185 80.8614C20.0062 81.14 20 81.4202 20 81.7018C20 92.2643 28.7304 100.827 39.5 100.827C39.9451 100.827 40.3867 100.812 40.8243 100.783C43.6831 111.53 53.6471 119.461 65.5 119.461C68.0464 119.461 70.5057 119.095 72.826 118.414C77.6233 132.693 91.3344 143 107.5 143C120.144 143 131.287 136.694 137.837 127.115C142.306 130.902 148.13 133.192 154.5 133.192C163.097 133.192 170.701 129.02 175.32 122.626C180.196 124.995 185.69 126.327 191.5 126.327C198.489 126.327 205.018 124.401 210.568 121.06C215.174 125.529 221.509 128.288 228.5 128.288C242.583 128.288 254 117.091 254 103.279C254 101.894 253.885 100.535 253.665 99.2118C258.938 102.114 265.022 103.769 271.5 103.769C289.57 103.769 304.573 90.8912 307.488 73.9826L308 73.8333V67.9712V-4Z"/>
</mask>
<path fill-rule="evenodd" clip-rule="evenodd" d="M308 -4H20V80.8558L20.0185 80.8614C20.0062 81.14 20 81.4202 20 81.7018C20 92.2643 28.7304 100.827 39.5 100.827C39.9451 100.827 40.3867 100.812 40.8243 100.783C43.6831 111.53 53.6471 119.461 65.5 119.461C68.0464 119.461 70.5057 119.095 72.826 118.414C77.6233 132.693 91.3344 143 107.5 143C120.144 143 131.287 136.694 137.837 127.115C142.306 130.902 148.13 133.192 154.5 133.192C163.097 133.192 170.701 129.02 175.32 122.626C180.196 124.995 185.69 126.327 191.5 126.327C198.489 126.327 205.018 124.401 210.568 121.06C215.174 125.529 221.509 128.288 228.5 128.288C242.583 128.288 254 117.091 254 103.279C254 101.894 253.885 100.535 253.665 99.2118C258.938 102.114 265.022 103.769 271.5 103.769C289.57 103.769 304.573 90.8912 307.488 73.9826L308 73.8333V67.9712V-4Z" fill="white"/>
<path d="M20 -4V-8H16V-4H20ZM308 -4H312V-8H308V-4ZM20 80.8558H16V83.8321L18.8508 84.6872L20 80.8558ZM20.0185 80.8614L24.0146 81.0375L24.1518 77.925L21.1677 77.03L20.0185 80.8614ZM40.8243 100.783L44.6899 99.7551L43.8442 96.5761L40.5618 96.792L40.8243 100.783ZM72.826 118.414L76.6177 117.14L75.3919 113.491L71.6989 114.576L72.826 118.414ZM137.837 127.115L140.423 124.063L137.038 121.195L134.535 124.857L137.837 127.115ZM175.32 122.626L177.068 119.028L174.046 117.56L172.078 120.284L175.32 122.626ZM210.568 121.06L213.353 118.189L211.143 116.045L208.505 117.633L210.568 121.06ZM253.665 99.2118L255.593 95.7074L248.361 91.7274L249.719 99.8697L253.665 99.2118ZM307.488 73.9826L306.369 70.1423L303.97 70.8412L303.546 73.303L307.488 73.9826ZM308 73.8333L309.119 77.6735L312 76.834V73.8333H308ZM20 0H308V-8H20V0ZM24 80.8558V-4H16V80.8558H24ZM21.1677 77.03L21.1492 77.0244L18.8508 84.6872L18.8693 84.6927L21.1677 77.03ZM24 81.7018C24 81.479 24.0049 81.2575 24.0146 81.0375L16.0224 80.6852C16.0075 81.0225 16 81.3614 16 81.7018H24ZM39.5 96.8268C30.866 96.8268 24 89.9823 24 81.7018H16C16 94.5463 26.5949 104.827 39.5 104.827V96.8268ZM40.5618 96.792C40.2114 96.8151 39.8574 96.8268 39.5 96.8268V104.827C40.0327 104.827 40.5619 104.809 41.0868 104.775L40.5618 96.792ZM65.5 115.461C55.4578 115.461 47.0819 108.747 44.6899 99.7551L36.9587 101.812C40.2842 114.313 51.8365 123.461 65.5 123.461V115.461ZM71.6989 114.576C69.7413 115.151 67.6615 115.461 65.5 115.461V123.461C68.4314 123.461 71.27 123.04 73.9531 122.252L71.6989 114.576ZM107.5 139C93.0621 139 80.8709 129.799 76.6177 117.14L69.0343 119.688C74.3758 135.587 89.6067 147 107.5 147V139ZM134.535 124.857C128.711 133.375 118.789 139 107.5 139V147C121.499 147 133.863 140.014 141.139 129.372L134.535 124.857ZM154.5 129.192C149.104 129.192 144.19 127.255 140.423 124.063L135.251 130.166C140.422 134.548 147.156 137.192 154.5 137.192V129.192ZM172.078 120.284C168.19 125.664 161.779 129.192 154.5 129.192V137.192C164.416 137.192 173.212 132.375 178.562 124.969L172.078 120.284ZM191.5 122.327C186.306 122.327 181.41 121.138 177.068 119.028L173.572 126.224C178.983 128.853 185.073 130.327 191.5 130.327V122.327ZM208.505 117.633C203.564 120.607 197.745 122.327 191.5 122.327V130.327C199.232 130.327 206.473 128.194 212.631 124.487L208.505 117.633ZM228.5 124.288C222.579 124.288 217.235 121.955 213.353 118.189L207.782 123.931C213.113 129.102 220.438 132.288 228.5 132.288V124.288ZM250 103.279C250 114.809 240.448 124.288 228.5 124.288V132.288C244.719 132.288 258 119.373 258 103.279H250ZM249.719 99.8697C249.904 100.977 250 102.115 250 103.279H258C258 101.673 257.867 100.094 257.61 98.5539L249.719 99.8697ZM271.5 99.7693C265.711 99.7693 260.289 98.2916 255.593 95.7074L251.736 102.716C257.588 105.937 264.334 107.769 271.5 107.769V99.7693ZM303.546 73.303C300.965 88.2703 287.646 99.7693 271.5 99.7693V107.769C291.494 107.769 308.18 93.5121 311.429 74.6621L303.546 73.303ZM306.881 69.993L306.369 70.1423L308.607 77.8228L309.119 77.6735L306.881 69.993ZM304 67.9712V73.8333H312V67.9712H304ZM304 -4V67.9712H312V-4H304Z" fill="#FFE3D0" mask="url(#path-1-inside-1_19_722)"/>
<path d="M44.1569 52.424L42.5549 51.65L47.6129 39.572C47.7929 39.152 48.0869 38.942 48.4949 38.942C48.9269 38.942 49.2209 39.152 49.3769 39.572L54.4529 51.686L52.9589 52.424L48.3869 41.336H48.6389L44.1569 52.424ZM42.1409 56.204C41.8769 56.204 41.6549 56.114 41.4749 55.934C41.2949 55.754 41.2049 55.532 41.2049 55.268V52.28C41.2049 52.004 41.2949 51.782 41.4749 51.614C41.6549 51.434 41.8769 51.344 42.1409 51.344H54.8129C55.0889 51.344 55.3109 51.434 55.4789 51.614C55.6589 51.782 55.7489 52.004 55.7489 52.28V55.268C55.7489 55.532 55.6589 55.754 55.4789 55.934C55.3109 56.114 55.0889 56.204 54.8129 56.204C54.5489 56.204 54.3269 56.114 54.1469 55.934C53.9669 55.754 53.8769 55.532 53.8769 55.268V53H43.0769V55.268C43.0769 55.532 42.9869 55.754 42.8069 55.934C42.6389 56.114 42.4169 56.204 42.1409 56.204ZM61.9661 53.09C61.1381 53.09 60.3941 52.916 59.7341 52.568C59.0861 52.208 58.5701 51.686 58.1861 51.002C57.8141 50.318 57.6281 49.478 57.6281 48.482V44.054C57.6281 43.79 57.7121 43.574 57.8801 43.406C58.0601 43.226 58.2821 43.136 58.5461 43.136C58.8101 43.136 59.0261 43.226 59.1941 43.406C59.3741 43.574 59.4641 43.79 59.4641 44.054V48.482C59.4641 49.154 59.5901 49.712 59.8421 50.156C60.0941 50.588 60.4361 50.912 60.8681 51.128C61.3001 51.332 61.7861 51.434 62.3261 51.434C62.8421 51.434 63.2981 51.332 63.6941 51.128C64.1021 50.924 64.4261 50.648 64.6661 50.3C64.9061 49.952 65.0261 49.562 65.0261 49.13H66.1601C66.1601 49.874 65.9741 50.546 65.6021 51.146C65.2421 51.746 64.7441 52.22 64.1081 52.568C63.4841 52.916 62.7701 53.09 61.9661 53.09ZM65.9441 53C65.6801 53 65.4581 52.916 65.2781 52.748C65.1101 52.568 65.0261 52.346 65.0261 52.082V44.054C65.0261 43.778 65.1101 43.556 65.2781 43.388C65.4581 43.22 65.6801 43.136 65.9441 43.136C66.2201 43.136 66.4421 43.22 66.6101 43.388C66.7781 43.556 66.8621 43.778 66.8621 44.054V52.082C66.8621 52.346 66.7781 52.568 66.6101 52.748C66.4421 52.916 66.2201 53 65.9441 53ZM74.5596 53.072C73.5996 53.072 72.7416 52.856 71.9856 52.424C71.2416 51.98 70.6536 51.386 70.2216 50.642C69.8016 49.886 69.5916 49.034 69.5916 48.086C69.5916 47.114 69.8016 46.25 70.2216 45.494C70.6416 44.738 71.2176 44.15 71.9496 43.73C72.6816 43.298 73.5216 43.082 74.4696 43.082C75.1776 43.082 75.8256 43.22 76.4136 43.496C77.0016 43.76 77.5296 44.162 77.9976 44.702C78.1656 44.894 78.2256 45.092 78.1776 45.296C78.1296 45.5 77.9976 45.68 77.7816 45.836C77.6136 45.956 77.4276 45.998 77.2236 45.962C77.0196 45.914 76.8336 45.806 76.6656 45.638C76.0776 45.014 75.3456 44.702 74.4696 44.702C73.8576 44.702 73.3176 44.846 72.8496 45.134C72.3816 45.41 72.0156 45.8 71.7516 46.304C71.4876 46.808 71.3556 47.402 71.3556 48.086C71.3556 48.734 71.4876 49.31 71.7516 49.814C72.0276 50.318 72.4056 50.72 72.8856 51.02C73.3656 51.308 73.9236 51.452 74.5596 51.452C74.9796 51.452 75.3456 51.404 75.6576 51.308C75.9816 51.2 76.2756 51.038 76.5396 50.822C76.7316 50.666 76.9296 50.582 77.1336 50.57C77.3376 50.546 77.5176 50.6 77.6736 50.732C77.8776 50.9 77.9916 51.092 78.0156 51.308C78.0396 51.512 77.9676 51.698 77.7996 51.866C76.9356 52.67 75.8556 53.072 74.5596 53.072ZM88.8981 52.784C88.7421 52.928 88.5201 53 88.2321 53C87.9561 52.988 87.7401 52.904 87.5841 52.748L83.2101 48.05L87.3321 43.442C87.4881 43.274 87.7041 43.178 87.9801 43.154C88.2681 43.13 88.4901 43.19 88.6461 43.334C88.8261 43.502 88.9281 43.694 88.9521 43.91C88.9761 44.114 88.9101 44.3 88.7541 44.468L85.4961 47.96L88.9521 51.668C89.1081 51.824 89.1861 52.01 89.1861 52.226C89.1861 52.43 89.0901 52.616 88.8981 52.784ZM81.7701 53.018C81.5061 53.018 81.2961 52.934 81.1401 52.766C80.9841 52.586 80.9061 52.364 80.9061 52.1V44.072C80.9061 43.796 80.9841 43.574 81.1401 43.406C81.2961 43.238 81.5061 43.154 81.7701 43.154C82.0461 43.154 82.2681 43.238 82.4361 43.406C82.6161 43.574 82.7061 43.796 82.7061 44.072V47.078H85.0101V48.77H82.7061V52.1C82.7061 52.364 82.6161 52.586 82.4361 52.766C82.2681 52.934 82.0461 53.018 81.7701 53.018ZM95.0029 53.072C94.0309 53.072 93.1729 52.862 92.4289 52.442C91.6849 52.01 91.0969 51.422 90.6649 50.678C90.2449 49.922 90.0349 49.058 90.0349 48.086C90.0349 47.102 90.2449 46.238 90.6649 45.494C91.0969 44.738 91.6849 44.15 92.4289 43.73C93.1729 43.298 94.0309 43.082 95.0029 43.082C95.9629 43.082 96.8149 43.298 97.5589 43.73C98.3029 44.15 98.8849 44.738 99.3049 45.494C99.7369 46.238 99.9529 47.102 99.9529 48.086C99.9529 49.058 99.7429 49.922 99.3229 50.678C98.9029 51.422 98.3209 52.01 97.5769 52.442C96.8329 52.862 95.9749 53.072 95.0029 53.072ZM95.0029 51.452C95.6269 51.452 96.1789 51.308 96.6589 51.02C97.1389 50.732 97.5109 50.336 97.7749 49.832C98.0509 49.328 98.1889 48.746 98.1889 48.086C98.1889 47.426 98.0509 46.844 97.7749 46.34C97.5109 45.824 97.1389 45.422 96.6589 45.134C96.1789 44.846 95.6269 44.702 95.0029 44.702C94.3789 44.702 93.8269 44.846 93.3469 45.134C92.8669 45.422 92.4889 45.824 92.2129 46.34C91.9369 46.844 91.7989 47.426 91.7989 48.086C91.7989 48.746 91.9369 49.328 92.2129 49.832C92.4889 50.336 92.8669 50.732 93.3469 51.02C93.8269 51.308 94.3789 51.452 95.0029 51.452ZM110.965 53C110.701 53 110.479 52.916 110.299 52.748C110.131 52.568 110.047 52.346 110.047 52.082V44.072C110.047 43.796 110.131 43.574 110.299 43.406C110.479 43.238 110.701 43.154 110.965 43.154C111.241 43.154 111.457 43.238 111.613 43.406C111.769 43.574 111.847 43.796 111.847 44.072V52.082C111.847 52.346 111.769 52.568 111.613 52.748C111.457 52.916 111.241 53 110.965 53ZM103.567 53C103.303 53 103.087 52.916 102.919 52.748C102.763 52.568 102.685 52.346 102.685 52.082V44.072C102.685 43.796 102.763 43.574 102.919 43.406C103.087 43.238 103.303 43.154 103.567 43.154C103.843 43.154 104.065 43.238 104.233 43.406C104.401 43.574 104.485 43.796 104.485 44.072V52.082C104.485 52.346 104.401 52.568 104.233 52.748C104.065 52.916 103.843 53 103.567 53ZM104.251 48.698V47.078H110.569V48.698H104.251ZM128.02 53.018C127.756 53.018 127.534 52.934 127.354 52.766C127.186 52.586 127.102 52.364 127.102 52.1V46.952C127.102 46.196 126.916 45.638 126.544 45.278C126.172 44.906 125.686 44.72 125.086 44.72C124.462 44.72 123.946 44.936 123.538 45.368C123.142 45.8 122.944 46.352 122.944 47.024H121.45C121.45 46.244 121.618 45.56 121.954 44.972C122.29 44.372 122.758 43.904 123.358 43.568C123.97 43.232 124.666 43.064 125.446 43.064C126.13 43.064 126.736 43.214 127.264 43.514C127.792 43.814 128.2 44.258 128.488 44.846C128.788 45.422 128.938 46.124 128.938 46.952V52.1C128.938 52.364 128.854 52.586 128.686 52.766C128.518 52.934 128.296 53.018 128.02 53.018ZM116.014 53.018C115.75 53.018 115.528 52.934 115.348 52.766C115.18 52.586 115.096 52.364 115.096 52.1V44.09C115.096 43.814 115.18 43.592 115.348 43.424C115.528 43.256 115.75 43.172 116.014 43.172C116.29 43.172 116.512 43.256 116.68 43.424C116.848 43.592 116.932 43.814 116.932 44.09V52.1C116.932 52.364 116.848 52.586 116.68 52.766C116.512 52.934 116.29 53.018 116.014 53.018ZM122.026 53.018C121.762 53.018 121.54 52.934 121.36 52.766C121.192 52.586 121.108 52.364 121.108 52.1V46.952C121.108 46.196 120.922 45.638 120.55 45.278C120.178 44.906 119.692 44.72 119.092 44.72C118.468 44.72 117.952 44.936 117.544 45.368C117.136 45.8 116.932 46.352 116.932 47.024H115.798C115.798 46.244 115.954 45.56 116.266 44.972C116.578 44.372 117.01 43.904 117.562 43.568C118.114 43.232 118.744 43.064 119.452 43.064C120.136 43.064 120.742 43.214 121.27 43.514C121.798 43.814 122.206 44.258 122.494 44.846C122.794 45.422 122.944 46.124 122.944 46.952V52.1C122.944 52.364 122.86 52.586 122.692 52.766C122.524 52.934 122.302 53.018 122.026 53.018ZM140.268 53C140.004 53 139.782 52.916 139.602 52.748C139.434 52.568 139.35 52.346 139.35 52.082V44.072C139.35 43.796 139.434 43.574 139.602 43.406C139.782 43.238 140.004 43.154 140.268 43.154C140.544 43.154 140.76 43.238 140.916 43.406C141.072 43.574 141.15 43.796 141.15 44.072V52.082C141.15 52.346 141.072 52.568 140.916 52.748C140.76 52.916 140.544 53 140.268 53ZM132.87 53C132.606 53 132.39 52.916 132.222 52.748C132.066 52.568 131.988 52.346 131.988 52.082V44.072C131.988 43.796 132.066 43.574 132.222 43.406C132.39 43.238 132.606 43.154 132.87 43.154C133.146 43.154 133.368 43.238 133.536 43.406C133.704 43.574 133.788 43.796 133.788 44.072V52.082C133.788 52.346 133.704 52.568 133.536 52.748C133.368 52.916 133.146 53 132.87 53ZM133.554 48.698V47.078H139.872V48.698H133.554ZM148.52 53.18C147.716 53.18 147.002 53.012 146.378 52.676C145.754 52.328 145.268 51.854 144.92 51.254C144.572 50.654 144.398 49.97 144.398 49.202V44.054C144.422 43.79 144.518 43.574 144.686 43.406C144.854 43.238 145.064 43.154 145.316 43.154C145.592 43.154 145.814 43.238 145.982 43.406C146.15 43.574 146.234 43.796 146.234 44.072V46.088H148.7C149.456 46.088 150.122 46.22 150.698 46.484C151.286 46.748 151.742 47.132 152.066 47.636C152.402 48.14 152.57 48.758 152.57 49.49C152.57 50.27 152.396 50.936 152.048 51.488C151.712 52.04 151.238 52.46 150.626 52.748C150.014 53.036 149.312 53.18 148.52 53.18ZM148.52 51.47C149.192 51.47 149.738 51.308 150.158 50.984C150.59 50.648 150.806 50.15 150.806 49.49C150.806 48.854 150.608 48.386 150.212 48.086C149.816 47.786 149.312 47.636 148.7 47.636H146.234V49.166C146.234 49.838 146.444 50.39 146.864 50.822C147.296 51.254 147.848 51.47 148.52 51.47ZM155.054 53C154.79 53 154.568 52.916 154.388 52.748C154.22 52.568 154.136 52.346 154.136 52.082V44.072C154.136 43.796 154.22 43.574 154.388 43.406C154.568 43.238 154.79 43.154 155.054 43.154C155.33 43.154 155.552 43.238 155.72 43.406C155.888 43.574 155.972 43.796 155.972 44.072V52.082C155.972 52.346 155.888 52.568 155.72 52.748C155.552 52.916 155.33 53 155.054 53ZM163.357 53.09C162.529 53.09 161.785 52.916 161.125 52.568C160.477 52.208 159.961 51.686 159.577 51.002C159.205 50.318 159.019 49.478 159.019 48.482V44.054C159.019 43.79 159.103 43.574 159.271 43.406C159.451 43.226 159.673 43.136 159.937 43.136C160.201 43.136 160.417 43.226 160.585 43.406C160.765 43.574 160.855 43.79 160.855 44.054V48.482C160.855 49.154 160.981 49.712 161.233 50.156C161.485 50.588 161.827 50.912 162.259 51.128C162.691 51.332 163.177 51.434 163.717 51.434C164.233 51.434 164.689 51.332 165.085 51.128C165.493 50.924 165.817 50.648 166.057 50.3C166.297 49.952 166.417 49.562 166.417 49.13H167.551C167.551 49.874 167.365 50.546 166.993 51.146C166.633 51.746 166.135 52.22 165.499 52.568C164.875 52.916 164.161 53.09 163.357 53.09ZM167.335 53C167.071 53 166.849 52.916 166.669 52.748C166.501 52.568 166.417 52.346 166.417 52.082V44.054C166.417 43.778 166.501 43.556 166.669 43.388C166.849 43.22 167.071 43.136 167.335 43.136C167.611 43.136 167.833 43.22 168.001 43.388C168.169 43.556 168.253 43.778 168.253 44.054V52.082C168.253 52.346 168.169 52.568 168.001 52.748C167.833 52.916 167.611 53 167.335 53ZM163.735 41.858C163.123 41.858 162.571 41.756 162.079 41.552C161.587 41.336 161.197 41.048 160.909 40.688C160.621 40.316 160.477 39.902 160.477 39.446C160.477 39.194 160.555 38.984 160.711 38.816C160.867 38.648 161.059 38.564 161.287 38.564C161.527 38.564 161.719 38.648 161.863 38.816C162.019 38.984 162.097 39.194 162.097 39.446C162.097 39.746 162.253 40.004 162.565 40.22C162.877 40.424 163.267 40.526 163.735 40.526C164.203 40.526 164.593 40.424 164.905 40.22C165.217 40.004 165.373 39.746 165.373 39.446C165.373 39.194 165.451 38.984 165.607 38.816C165.763 38.648 165.955 38.564 166.183 38.564C166.423 38.564 166.615 38.648 166.759 38.816C166.915 38.984 166.993 39.194 166.993 39.446C166.993 39.902 166.849 40.316 166.561 40.688C166.273 41.048 165.883 41.336 165.391 41.552C164.911 41.756 164.359 41.858 163.735 41.858ZM177.678 53C177.414 53 177.192 52.916 177.012 52.748C176.844 52.568 176.76 52.346 176.76 52.082V44.072C176.76 43.796 176.844 43.574 177.012 43.406C177.192 43.238 177.414 43.154 177.678 43.154C178.062 43.154 178.386 43.34 178.65 43.712L182.376 49.094L186.102 43.712C186.366 43.34 186.69 43.154 187.074 43.154C187.35 43.154 187.572 43.238 187.74 43.406C187.908 43.574 187.992 43.796 187.992 44.072V52.082C187.992 52.346 187.908 52.568 187.74 52.748C187.572 52.916 187.35 53 187.074 53C186.81 53 186.588 52.916 186.408 52.748C186.24 52.568 186.156 52.346 186.156 52.082V45.53L186.624 45.674L183.312 50.354C183.012 50.774 182.688 50.984 182.34 50.984C181.992 50.972 181.674 50.762 181.386 50.354L178.128 45.674L178.596 45.53V52.082C178.596 52.346 178.512 52.568 178.344 52.748C178.176 52.916 177.954 53 177.678 53ZM195.33 53.072C194.454 53.072 193.668 52.856 192.972 52.424C192.276 51.98 191.724 51.386 191.316 50.642C190.92 49.886 190.722 49.034 190.722 48.086C190.722 47.138 190.938 46.286 191.37 45.53C191.814 44.774 192.408 44.18 193.152 43.748C193.908 43.304 194.754 43.082 195.69 43.082C196.626 43.082 197.466 43.304 198.21 43.748C198.954 44.18 199.542 44.774 199.974 45.53C200.418 46.286 200.64 47.138 200.64 48.086H199.938C199.938 49.034 199.734 49.886 199.326 50.642C198.93 51.386 198.384 51.98 197.688 52.424C196.992 52.856 196.206 53.072 195.33 53.072ZM195.69 51.452C196.302 51.452 196.848 51.308 197.328 51.02C197.808 50.72 198.186 50.318 198.462 49.814C198.738 49.298 198.876 48.722 198.876 48.086C198.876 47.438 198.738 46.862 198.462 46.358C198.186 45.842 197.808 45.44 197.328 45.152C196.848 44.852 196.302 44.702 195.69 44.702C195.09 44.702 194.544 44.852 194.052 45.152C193.572 45.44 193.188 45.842 192.9 46.358C192.624 46.862 192.486 47.438 192.486 48.086C192.486 48.722 192.624 49.298 192.9 49.814C193.188 50.318 193.572 50.72 194.052 51.02C194.544 51.308 195.09 51.452 195.69 51.452ZM199.722 53.018C199.458 53.018 199.236 52.934 199.056 52.766C198.888 52.586 198.804 52.364 198.804 52.1V49.346L199.146 47.438L200.64 48.086V52.1C200.64 52.364 200.55 52.586 200.37 52.766C200.202 52.934 199.986 53.018 199.722 53.018ZM206.415 53.072C205.659 53.072 204.981 52.958 204.381 52.73C203.793 52.49 203.325 52.16 202.977 51.74C202.641 51.32 202.473 50.84 202.473 50.3C202.473 49.76 202.623 49.298 202.923 48.914C203.235 48.53 203.679 48.206 204.255 47.942C204.843 47.678 205.545 47.468 206.361 47.312C207.177 47.144 207.729 46.946 208.017 46.718C208.305 46.478 208.449 46.172 208.449 45.8C208.449 45.416 208.257 45.134 207.873 44.954C207.489 44.762 207.045 44.666 206.541 44.666C206.121 44.666 205.701 44.732 205.281 44.864C204.873 44.996 204.531 45.188 204.255 45.44C204.075 45.608 203.877 45.722 203.661 45.782C203.445 45.842 203.271 45.83 203.139 45.746C202.911 45.602 202.767 45.416 202.707 45.188C202.659 44.96 202.713 44.75 202.869 44.558C203.229 44.114 203.733 43.76 204.381 43.496C205.041 43.22 205.767 43.082 206.559 43.082C207.231 43.082 207.843 43.19 208.395 43.406C208.947 43.61 209.385 43.916 209.709 44.324C210.045 44.732 210.213 45.236 210.213 45.836C210.213 46.532 209.931 47.12 209.367 47.6C208.803 48.068 207.945 48.428 206.793 48.68C205.845 48.872 205.191 49.1 204.831 49.364C204.471 49.616 204.297 49.922 204.309 50.282C204.321 50.654 204.501 50.942 204.849 51.146C205.197 51.35 205.719 51.452 206.415 51.452C207.039 51.452 207.567 51.392 207.999 51.272C208.443 51.14 208.791 50.942 209.043 50.678C209.211 50.498 209.403 50.378 209.619 50.318C209.835 50.258 210.057 50.324 210.285 50.516C210.489 50.684 210.591 50.876 210.591 51.092C210.591 51.308 210.501 51.512 210.321 51.704C209.925 52.1 209.373 52.43 208.665 52.694C207.957 52.946 207.207 53.072 206.415 53.072ZM216.952 53.072C216.076 53.072 215.29 52.856 214.594 52.424C213.898 51.98 213.346 51.386 212.938 50.642C212.542 49.886 212.344 49.034 212.344 48.086C212.344 47.138 212.56 46.286 212.992 45.53C213.436 44.774 214.03 44.18 214.774 43.748C215.53 43.304 216.376 43.082 217.312 43.082C218.248 43.082 219.088 43.304 219.832 43.748C220.576 44.18 221.164 44.774 221.596 45.53C222.04 46.286 222.262 47.138 222.262 48.086H221.56C221.56 49.034 221.356 49.886 220.948 50.642C220.552 51.386 220.006 51.98 219.31 52.424C218.614 52.856 217.828 53.072 216.952 53.072ZM217.312 51.452C217.924 51.452 218.47 51.308 218.95 51.02C219.43 50.72 219.808 50.318 220.084 49.814C220.36 49.298 220.498 48.722 220.498 48.086C220.498 47.438 220.36 46.862 220.084 46.358C219.808 45.842 219.43 45.44 218.95 45.152C218.47 44.852 217.924 44.702 217.312 44.702C216.712 44.702 216.166 44.852 215.674 45.152C215.194 45.44 214.81 45.842 214.522 46.358C214.246 46.862 214.108 47.438 214.108 48.086C214.108 48.722 214.246 49.298 214.522 49.814C214.81 50.318 215.194 50.72 215.674 51.02C216.166 51.308 216.712 51.452 217.312 51.452ZM221.344 53.018C221.08 53.018 220.858 52.934 220.678 52.766C220.51 52.586 220.426 52.364 220.426 52.1V49.346L220.768 47.438L222.262 48.086V52.1C222.262 52.364 222.172 52.586 221.992 52.766C221.824 52.934 221.608 53.018 221.344 53.018ZM228.36 53.144C227.784 53.144 227.25 53.084 226.758 52.964C226.278 52.844 225.84 52.682 225.444 52.478C225.06 52.262 224.724 52.028 224.436 51.776C224.244 51.596 224.148 51.386 224.148 51.146C224.148 50.894 224.25 50.69 224.454 50.534C224.634 50.39 224.85 50.33 225.102 50.354C225.366 50.366 225.588 50.456 225.768 50.624C226.056 50.876 226.416 51.092 226.848 51.272C227.28 51.44 227.778 51.524 228.342 51.524C229.002 51.524 229.524 51.386 229.908 51.11C230.304 50.822 230.502 50.456 230.502 50.012C230.502 49.616 230.358 49.304 230.07 49.076C229.794 48.836 229.446 48.71 229.026 48.698H228C227.736 48.698 227.514 48.626 227.334 48.482C227.154 48.338 227.064 48.164 227.064 47.96C227.064 47.756 227.154 47.588 227.334 47.456C227.514 47.324 227.736 47.258 228 47.258H229.008C229.404 47.234 229.698 47.102 229.89 46.862C230.094 46.622 230.196 46.322 230.196 45.962C230.196 45.566 230.028 45.254 229.692 45.026C229.356 44.798 228.87 44.684 228.234 44.684C227.718 44.684 227.25 44.756 226.83 44.9C226.41 45.044 226.062 45.254 225.786 45.53C225.594 45.722 225.384 45.83 225.156 45.854C224.94 45.866 224.73 45.794 224.526 45.638C224.37 45.518 224.298 45.344 224.31 45.116C224.334 44.888 224.436 44.678 224.616 44.486C225 44.066 225.516 43.724 226.164 43.46C226.812 43.196 227.49 43.064 228.198 43.064C228.93 43.064 229.578 43.19 230.142 43.442C230.706 43.694 231.15 44.03 231.474 44.45C231.798 44.87 231.96 45.332 231.96 45.836C231.96 46.256 231.846 46.628 231.618 46.952C231.402 47.264 231.108 47.51 230.736 47.69C230.376 47.858 229.974 47.942 229.53 47.942V47.798C230.046 47.798 230.508 47.9 230.916 48.104C231.336 48.308 231.666 48.584 231.906 48.932C232.146 49.268 232.266 49.658 232.266 50.102C232.266 50.678 232.092 51.194 231.744 51.65C231.408 52.106 230.946 52.472 230.358 52.748C229.77 53.012 229.104 53.144 228.36 53.144ZM238.661 53.09C237.833 53.09 237.089 52.916 236.429 52.568C235.781 52.208 235.265 51.686 234.881 51.002C234.509 50.318 234.323 49.478 234.323 48.482V44.054C234.323 43.79 234.407 43.574 234.575 43.406C234.755 43.226 234.977 43.136 235.241 43.136C235.505 43.136 235.721 43.226 235.889 43.406C236.069 43.574 236.159 43.79 236.159 44.054V48.482C236.159 49.154 236.285 49.712 236.537 50.156C236.789 50.588 237.131 50.912 237.563 51.128C237.995 51.332 238.481 51.434 239.021 51.434C239.537 51.434 239.993 51.332 240.389 51.128C240.797 50.924 241.121 50.648 241.361 50.3C241.601 49.952 241.721 49.562 241.721 49.13H242.855C242.855 49.874 242.669 50.546 242.297 51.146C241.937 51.746 241.439 52.22 240.803 52.568C240.179 52.916 239.465 53.09 238.661 53.09ZM242.639 53C242.375 53 242.153 52.916 241.973 52.748C241.805 52.568 241.721 52.346 241.721 52.082V44.054C241.721 43.778 241.805 43.556 241.973 43.388C242.153 43.22 242.375 43.136 242.639 43.136C242.915 43.136 243.137 43.22 243.305 43.388C243.473 43.556 243.557 43.778 243.557 44.054V52.082C243.557 52.346 243.473 52.568 243.305 52.748C243.137 52.916 242.915 53 242.639 53ZM255.071 53C254.807 53 254.585 52.916 254.405 52.748C254.237 52.568 254.153 52.346 254.153 52.082V44.072C254.153 43.796 254.237 43.574 254.405 43.406C254.585 43.238 254.807 43.154 255.071 43.154C255.347 43.154 255.563 43.238 255.719 43.406C255.875 43.574 255.953 43.796 255.953 44.072V52.082C255.953 52.346 255.875 52.568 255.719 52.748C255.563 52.916 255.347 53 255.071 53ZM247.673 53C247.409 53 247.193 52.916 247.025 52.748C246.869 52.568 246.791 52.346 246.791 52.082V44.072C246.791 43.796 246.869 43.574 247.025 43.406C247.193 43.238 247.409 43.154 247.673 43.154C247.949 43.154 248.171 43.238 248.339 43.406C248.507 43.574 248.591 43.796 248.591 44.072V52.082C248.591 52.346 248.507 52.568 248.339 52.748C248.171 52.916 247.949 53 247.673 53ZM248.357 48.698V47.078H254.675V48.698H248.357ZM265.572 53C265.308 53 265.086 52.91 264.906 52.73C264.738 52.55 264.654 52.334 264.654 52.082V39.878C264.654 39.626 264.738 39.41 264.906 39.23C265.086 39.05 265.308 38.96 265.572 38.96C265.848 38.96 266.094 39.074 266.31 39.302L274.122 49.364V39.878C274.122 39.626 274.212 39.41 274.392 39.23C274.572 39.05 274.794 38.96 275.058 38.96C275.31 38.96 275.526 39.05 275.706 39.23C275.898 39.41 275.994 39.626 275.994 39.878V52.082C275.994 52.334 275.898 52.55 275.706 52.73C275.526 52.91 275.31 53 275.058 53C274.782 53 274.542 52.892 274.338 52.676L266.508 42.614V52.082C266.508 52.334 266.418 52.55 266.238 52.73C266.058 52.91 265.836 53 265.572 53ZM278.298 48.698C278.034 48.698 277.812 48.608 277.632 48.428C277.464 48.248 277.38 48.026 277.38 47.762C277.38 47.498 277.464 47.282 277.632 47.114C277.812 46.934 278.034 46.844 278.298 46.844H283.716C283.992 46.844 284.214 46.934 284.382 47.114C284.55 47.282 284.634 47.498 284.634 47.762C284.634 48.026 284.55 48.248 284.382 48.428C284.214 48.608 283.992 48.698 283.716 48.698H278.298ZM281.016 46.232C280.344 46.232 279.732 46.07 279.18 45.746C278.628 45.41 278.19 44.966 277.866 44.414C277.542 43.862 277.38 43.256 277.38 42.596C277.38 41.936 277.542 41.33 277.866 40.778C278.19 40.226 278.628 39.788 279.18 39.464C279.732 39.128 280.344 38.96 281.016 38.96C281.688 38.96 282.294 39.128 282.834 39.464C283.386 39.788 283.824 40.226 284.148 40.778C284.472 41.33 284.634 41.936 284.634 42.596C284.634 43.256 284.472 43.862 284.148 44.414C283.824 44.966 283.386 45.41 282.834 45.746C282.294 46.07 281.688 46.232 281.016 46.232ZM281.016 44.378C281.34 44.378 281.634 44.3 281.898 44.144C282.162 43.976 282.372 43.76 282.528 43.496C282.696 43.22 282.78 42.92 282.78 42.596C282.78 42.272 282.696 41.978 282.528 41.714C282.372 41.438 282.156 41.222 281.88 41.066C281.616 40.898 281.328 40.814 281.016 40.814C280.692 40.814 280.392 40.892 280.116 41.048C279.852 41.204 279.636 41.42 279.468 41.696C279.312 41.96 279.234 42.26 279.234 42.596C279.234 42.92 279.312 43.22 279.468 43.496C279.624 43.76 279.834 43.976 280.098 44.144C280.374 44.3 280.68 44.378 281.016 44.378ZM289.517 53C289.277 53 289.067 52.91 288.887 52.73C288.707 52.55 288.617 52.334 288.617 52.082V41.102L287.303 41.66C287.099 41.744 286.907 41.786 286.727 41.786C286.463 41.786 286.241 41.702 286.061 41.534C285.893 41.366 285.809 41.15 285.809 40.886C285.809 40.694 285.857 40.52 285.953 40.364C286.049 40.208 286.199 40.094 286.403 40.022L289.211 39.014C289.271 38.99 289.331 38.972 289.391 38.96C289.451 38.948 289.505 38.942 289.553 38.942C289.829 38.942 290.045 39.032 290.201 39.212C290.369 39.38 290.453 39.602 290.453 39.878V52.082C290.453 52.334 290.363 52.55 290.183 52.73C290.003 52.91 289.781 53 289.517 53Z" fill="#A0466D"/>
<path d="M79.6691 77.016C79.4557 77.016 79.2744 76.9467 79.1251 76.808C78.9864 76.6587 78.9171 76.4827 78.9171 76.28V72.248C78.9171 71.6187 78.7997 71.1067 78.5651 70.712C78.3304 70.3067 78.0157 70.008 77.6211 69.816C77.2264 69.6133 76.7731 69.512 76.2611 69.512C75.7811 69.512 75.3491 69.608 74.9651 69.8C74.5811 69.992 74.2717 70.248 74.0371 70.568C73.8131 70.888 73.7011 71.256 73.7011 71.672H72.7411C72.7517 71 72.9224 70.4027 73.2531 69.88C73.5837 69.3467 74.0317 68.9307 74.5971 68.632C75.1624 68.3227 75.7971 68.168 76.5011 68.168C77.2477 68.168 77.9144 68.328 78.5011 68.648C79.0877 68.9573 79.5517 69.416 79.8931 70.024C80.2344 70.632 80.4051 71.3733 80.4051 72.248V76.28C80.4051 76.4827 80.3304 76.6587 80.1811 76.808C80.0424 76.9467 79.8717 77.016 79.6691 77.016ZM72.9651 77.016C72.7517 77.016 72.5757 76.9467 72.4371 76.808C72.2984 76.6693 72.2291 76.4933 72.2291 76.28V68.984C72.2291 68.76 72.2984 68.584 72.4371 68.456C72.5757 68.3173 72.7517 68.248 72.9651 68.248C73.1891 68.248 73.3651 68.3173 73.4931 68.456C73.6317 68.584 73.7011 68.76 73.7011 68.984V76.28C73.7011 76.4933 73.6317 76.6693 73.4931 76.808C73.3651 76.9467 73.1891 77.016 72.9651 77.016ZM87.0721 77.064C86.2187 77.064 85.4561 76.8773 84.7841 76.504C84.1227 76.12 83.6001 75.5973 83.2161 74.936C82.8427 74.264 82.6561 73.496 82.6561 72.632C82.6561 71.7573 82.8427 70.9893 83.2161 70.328C83.6001 69.656 84.1227 69.1333 84.7841 68.76C85.4561 68.376 86.2187 68.184 87.0721 68.184C87.9254 68.184 88.6827 68.376 89.3441 68.76C90.0161 69.1333 90.5387 69.656 90.9121 70.328C91.2961 70.9893 91.4934 71.7573 91.5041 72.632C91.5041 73.496 91.3121 74.264 90.9281 74.936C90.5441 75.5973 90.0214 76.12 89.3601 76.504C88.6987 76.8773 87.9361 77.064 87.0721 77.064ZM87.0721 75.752C87.6587 75.752 88.1761 75.6187 88.6241 75.352C89.0721 75.0853 89.4241 74.7173 89.6801 74.248C89.9361 73.7787 90.0641 73.24 90.0641 72.632C90.0641 72.024 89.9361 71.4853 89.6801 71.016C89.4241 70.536 89.0721 70.1627 88.6241 69.896C88.1761 69.6293 87.6587 69.496 87.0721 69.496C86.4961 69.496 85.9787 69.6293 85.5201 69.896C85.0721 70.1627 84.7201 70.536 84.4641 71.016C84.2081 71.4853 84.0801 72.024 84.0801 72.632C84.0801 73.24 84.2081 73.7787 84.4641 74.248C84.7201 74.7173 85.0721 75.0853 85.5201 75.352C85.9787 75.6187 86.4961 75.752 87.0721 75.752ZM99.3401 77C99.1267 77 98.9507 76.9307 98.8121 76.792C98.6734 76.6533 98.6041 76.4773 98.6041 76.264V68.968C98.6254 68.7547 98.7001 68.584 98.8281 68.456C98.9667 68.3173 99.1374 68.248 99.3401 68.248C99.5641 68.248 99.7401 68.3173 99.8681 68.456C100.007 68.584 100.076 68.76 100.076 68.984V71.848H103.292V72.136C103.868 72.136 104.375 72.2373 104.812 72.44C105.26 72.6427 105.607 72.9253 105.852 73.288C106.108 73.64 106.236 74.0507 106.236 74.52C106.236 75 106.108 75.4267 105.852 75.8C105.607 76.1733 105.26 76.4667 104.812 76.68C104.375 76.8933 103.868 77 103.292 77H99.3401ZM100.076 75.624H103.292C103.74 75.624 104.103 75.5173 104.38 75.304C104.668 75.08 104.812 74.776 104.812 74.392C104.812 73.9867 104.668 73.6667 104.38 73.432C104.103 73.1973 103.74 73.08 103.292 73.08H100.076V75.624ZM101.9 72.648V71.848H103.452C103.761 71.848 104.012 71.7413 104.204 71.528C104.396 71.304 104.492 71.016 104.492 70.664C104.492 70.3653 104.38 70.1147 104.156 69.912C103.943 69.7093 103.665 69.608 103.324 69.608H99.3561V68.248H103.324C103.825 68.248 104.268 68.3493 104.652 68.552C105.036 68.744 105.34 69.016 105.564 69.368C105.788 69.7093 105.9 70.104 105.9 70.552C105.9 71.192 105.665 71.704 105.196 72.088C104.737 72.4613 104.156 72.648 103.452 72.648H101.9ZM112.228 77.064C111.375 77.064 110.612 76.8773 109.94 76.504C109.279 76.12 108.756 75.5973 108.372 74.936C107.999 74.264 107.812 73.496 107.812 72.632C107.812 71.7573 107.999 70.9893 108.372 70.328C108.756 69.656 109.279 69.1333 109.94 68.76C110.612 68.376 111.375 68.184 112.228 68.184C113.082 68.184 113.839 68.376 114.5 68.76C115.172 69.1333 115.695 69.656 116.068 70.328C116.452 70.9893 116.65 71.7573 116.66 72.632C116.66 73.496 116.468 74.264 116.084 74.936C115.7 75.5973 115.178 76.12 114.516 76.504C113.855 76.8773 113.092 77.064 112.228 77.064ZM112.228 75.752C112.815 75.752 113.332 75.6187 113.78 75.352C114.228 75.0853 114.58 74.7173 114.836 74.248C115.092 73.7787 115.22 73.24 115.22 72.632C115.22 72.024 115.092 71.4853 114.836 71.016C114.58 70.536 114.228 70.1627 113.78 69.896C113.332 69.6293 112.815 69.496 112.228 69.496C111.652 69.496 111.135 69.6293 110.676 69.896C110.228 70.1627 109.876 70.536 109.62 71.016C109.364 71.4853 109.236 72.024 109.236 72.632C109.236 73.24 109.364 73.7787 109.62 74.248C109.876 74.7173 110.228 75.0853 110.676 75.352C111.135 75.6187 111.652 75.752 112.228 75.752ZM121.985 77.128C121.494 77.128 121.03 77.0747 120.593 76.968C120.155 76.8507 119.761 76.696 119.409 76.504C119.067 76.3013 118.779 76.0773 118.545 75.832C118.395 75.6827 118.326 75.512 118.337 75.32C118.347 75.1173 118.438 74.9573 118.609 74.84C118.758 74.7333 118.934 74.6907 119.137 74.712C119.339 74.7333 119.51 74.8133 119.649 74.952C119.905 75.1973 120.23 75.4053 120.625 75.576C121.019 75.736 121.467 75.816 121.969 75.816C122.577 75.816 123.062 75.688 123.425 75.432C123.787 75.176 123.969 74.8293 123.969 74.392C123.969 74.0187 123.83 73.7147 123.553 73.48C123.286 73.2347 122.945 73.1067 122.529 73.096H121.665C121.441 73.096 121.254 73.0373 121.105 72.92C120.955 72.8027 120.881 72.6587 120.881 72.488C120.881 72.3173 120.955 72.1787 121.105 72.072C121.254 71.9547 121.441 71.896 121.665 71.896H122.529C122.891 71.8853 123.174 71.768 123.377 71.544C123.579 71.3093 123.681 71.0213 123.681 70.68C123.681 70.3173 123.526 70.0293 123.217 69.816C122.907 69.592 122.47 69.48 121.905 69.48C121.414 69.48 120.987 69.5547 120.625 69.704C120.262 69.8427 119.963 70.0347 119.729 70.28C119.579 70.44 119.414 70.5307 119.233 70.552C119.051 70.5733 118.875 70.5253 118.705 70.408C118.566 70.312 118.497 70.1733 118.497 69.992C118.507 69.8 118.582 69.624 118.721 69.464C119.062 69.08 119.51 68.7653 120.065 68.52C120.63 68.2747 121.233 68.152 121.873 68.152C122.502 68.152 123.057 68.264 123.537 68.488C124.027 68.7013 124.411 68.9947 124.689 69.368C124.977 69.7307 125.121 70.1307 125.121 70.568C125.121 70.9307 125.025 71.256 124.833 71.544C124.641 71.832 124.379 72.0613 124.049 72.232C123.729 72.392 123.377 72.4827 122.993 72.504V72.344C123.441 72.344 123.846 72.44 124.209 72.632C124.582 72.8133 124.875 73.064 125.089 73.384C125.302 73.704 125.409 74.0613 125.409 74.456C125.409 74.968 125.259 75.4267 124.961 75.832C124.662 76.2267 124.251 76.5413 123.729 76.776C123.217 77.0107 122.635 77.128 121.985 77.128ZM131.176 77.064C130.354 77.064 129.629 76.8773 129 76.504C128.381 76.12 127.89 75.5973 127.528 74.936C127.176 74.264 127 73.496 127 72.632C127 71.7573 127.186 70.9893 127.56 70.328C127.944 69.656 128.466 69.1333 129.128 68.76C129.8 68.376 130.562 68.184 131.416 68.184C132.28 68.184 133.042 68.376 133.704 68.76C134.365 69.1333 134.882 69.656 135.256 70.328C135.64 70.9893 135.837 71.7573 135.848 72.632L134.984 72.776C134.984 73.6187 134.818 74.3653 134.488 75.016C134.168 75.656 133.72 76.1573 133.144 76.52C132.568 76.8827 131.912 77.064 131.176 77.064ZM131.416 80.568C130.626 80.568 129.901 80.4133 129.24 80.104C128.589 79.8053 128.045 79.3733 127.608 78.808C127.48 78.648 127.426 78.4773 127.448 78.296C127.48 78.1253 127.576 77.9867 127.736 77.88C127.906 77.7627 128.088 77.72 128.28 77.752C128.472 77.7947 128.626 77.8907 128.744 78.04C129.042 78.4133 129.416 78.7067 129.864 78.92C130.322 79.1333 130.85 79.24 131.448 79.24C131.992 79.24 132.488 79.1067 132.936 78.84C133.384 78.584 133.741 78.2053 134.008 77.704C134.274 77.2133 134.408 76.6213 134.408 75.928V73.592L134.904 72.376L135.848 72.632V76.008C135.848 76.8613 135.656 77.6293 135.272 78.312C134.898 79.0053 134.376 79.5547 133.704 79.96C133.042 80.3653 132.28 80.568 131.416 80.568ZM131.416 75.752C132.002 75.752 132.52 75.6187 132.968 75.352C133.416 75.0853 133.768 74.7173 134.024 74.248C134.28 73.7787 134.408 73.24 134.408 72.632C134.408 72.024 134.28 71.4853 134.024 71.016C133.768 70.536 133.416 70.1627 132.968 69.896C132.52 69.6293 132.002 69.496 131.416 69.496C130.84 69.496 130.322 69.6293 129.864 69.896C129.416 70.1627 129.064 70.536 128.808 71.016C128.552 71.4853 128.424 72.024 128.424 72.632C128.424 73.24 128.552 73.7787 128.808 74.248C129.064 74.7173 129.416 75.0853 129.864 75.352C130.322 75.6187 130.84 75.752 131.416 75.752ZM137.632 80.84C137.429 80.84 137.221 80.808 137.008 80.744C136.795 80.6907 136.587 80.6053 136.384 80.488C136.171 80.36 136.032 80.2 135.968 80.008C135.904 79.8267 135.941 79.6453 136.08 79.464C136.197 79.304 136.341 79.208 136.512 79.176C136.683 79.1547 136.864 79.1973 137.056 79.304C137.173 79.368 137.285 79.416 137.392 79.448C137.499 79.48 137.611 79.496 137.728 79.496C138.08 79.496 138.416 79.3253 138.736 78.984C139.056 78.6427 139.36 78.1413 139.648 77.48L143.536 68.616C143.621 68.424 143.755 68.296 143.936 68.232C144.117 68.168 144.299 68.1787 144.48 68.264C144.651 68.328 144.763 68.4507 144.816 68.632C144.869 68.8133 144.848 69.0053 144.752 69.208L140.832 78.056C140.469 78.888 140.005 79.56 139.44 80.072C138.875 80.584 138.272 80.84 137.632 80.84ZM141.168 76.68C140.976 76.7653 140.8 76.776 140.64 76.712C140.48 76.648 140.352 76.5253 140.256 76.344L136.624 69.208C136.528 69.0267 136.512 68.8507 136.576 68.68C136.651 68.5093 136.784 68.3867 136.976 68.312C137.157 68.2267 137.328 68.216 137.488 68.28C137.659 68.3333 137.787 68.456 137.872 68.648L141.392 75.72C141.488 75.912 141.52 76.0987 141.488 76.28C141.456 76.4613 141.349 76.5947 141.168 76.68ZM155.02 77.096C154.401 77.096 153.852 76.9573 153.372 76.68C152.902 76.4027 152.534 76.0027 152.268 75.48C152.012 74.9467 151.884 74.312 151.884 73.576V68.984C151.884 68.76 151.948 68.584 152.076 68.456C152.214 68.3173 152.396 68.248 152.62 68.248C152.833 68.248 153.009 68.3173 153.148 68.456C153.286 68.584 153.356 68.76 153.356 68.984V73.576C153.356 74.0453 153.436 74.44 153.596 74.76C153.756 75.08 153.98 75.3253 154.268 75.496C154.556 75.656 154.892 75.736 155.276 75.736C155.873 75.736 156.364 75.5387 156.748 75.144C157.132 74.7387 157.324 74.2267 157.324 73.608H157.996C157.996 74.2907 157.862 74.8933 157.596 75.416C157.34 75.9387 156.988 76.3493 156.54 76.648C156.102 76.9467 155.596 77.096 155.02 77.096ZM149.596 77.096C148.977 77.096 148.433 76.9573 147.964 76.68C147.494 76.4027 147.121 76.0027 146.844 75.48C146.577 74.9467 146.444 74.312 146.444 73.576V68.984C146.444 68.76 146.513 68.584 146.652 68.456C146.79 68.3173 146.966 68.248 147.18 68.248C147.404 68.248 147.585 68.3173 147.724 68.456C147.862 68.584 147.932 68.76 147.932 68.984V73.576C147.932 74.0453 148.012 74.44 148.172 74.76C148.332 75.08 148.556 75.3253 148.844 75.496C149.132 75.656 149.462 75.736 149.836 75.736C150.444 75.736 150.934 75.5333 151.308 75.128C151.692 74.7227 151.884 74.2 151.884 73.56H152.556C152.545 74.2533 152.412 74.8667 152.156 75.4C151.91 75.9333 151.564 76.3493 151.116 76.648C150.678 76.9467 150.172 77.096 149.596 77.096ZM158.06 77C157.846 77 157.67 76.9307 157.532 76.792C157.393 76.6533 157.324 76.4773 157.324 76.264V68.984C157.324 68.76 157.393 68.584 157.532 68.456C157.67 68.3173 157.846 68.248 158.06 68.248C158.284 68.248 158.46 68.3173 158.588 68.456C158.726 68.584 158.796 68.76 158.796 68.984V76.264C158.796 76.4773 158.726 76.6533 158.588 76.792C158.46 76.9307 158.284 77 158.06 77ZM169.09 77C168.877 77 168.701 76.9307 168.562 76.792C168.424 76.6533 168.354 76.4773 168.354 76.264V68.984C168.354 68.76 168.424 68.584 168.562 68.456C168.701 68.3173 168.877 68.248 169.09 68.248C169.314 68.248 169.485 68.3173 169.602 68.456C169.73 68.584 169.794 68.76 169.794 68.984V76.264C169.794 76.4773 169.73 76.6533 169.602 76.792C169.485 76.9307 169.314 77 169.09 77ZM162.402 77C162.189 77 162.013 76.9307 161.874 76.792C161.746 76.6533 161.682 76.4773 161.682 76.264V68.984C161.682 68.76 161.746 68.584 161.874 68.456C162.013 68.3173 162.189 68.248 162.402 68.248C162.616 68.248 162.792 68.3173 162.93 68.456C163.069 68.584 163.138 68.76 163.138 68.984V76.264C163.138 76.4773 163.069 76.6533 162.93 76.792C162.792 76.9307 162.616 77 162.402 77ZM162.93 73.16V71.848H168.802V73.16H162.93ZM176.283 77.16C175.579 77.16 174.955 77.016 174.411 76.728C173.867 76.4293 173.44 76.024 173.131 75.512C172.821 74.9893 172.667 74.3973 172.667 73.736V68.968C172.688 68.7547 172.763 68.584 172.891 68.456C173.029 68.3173 173.2 68.248 173.403 68.248C173.627 68.248 173.803 68.3173 173.931 68.456C174.069 68.584 174.139 68.76 174.139 68.984V70.968H176.411C177.061 70.968 177.643 71.0853 178.155 71.32C178.667 71.5547 179.067 71.896 179.355 72.344C179.643 72.792 179.787 73.3307 179.787 73.96C179.787 74.632 179.637 75.208 179.339 75.688C179.04 76.1573 178.624 76.52 178.091 76.776C177.568 77.032 176.965 77.16 176.283 77.16ZM176.283 75.784C176.891 75.784 177.387 75.6347 177.771 75.336C178.165 75.0267 178.363 74.568 178.363 73.96C178.363 73.3733 178.176 72.9413 177.803 72.664C177.44 72.376 176.976 72.232 176.411 72.232H174.139V73.704C174.139 74.312 174.336 74.8133 174.731 75.208C175.136 75.592 175.653 75.784 176.283 75.784ZM181.915 77C181.701 77 181.525 76.9307 181.387 76.792C181.248 76.6533 181.179 76.4773 181.179 76.264V68.984C181.179 68.76 181.248 68.584 181.387 68.456C181.525 68.3173 181.701 68.248 181.915 68.248C182.139 68.248 182.315 68.3173 182.443 68.456C182.581 68.584 182.651 68.76 182.651 68.984V76.264C182.651 76.4773 182.581 76.6533 182.443 76.792C182.315 76.9307 182.139 77 181.915 77ZM186.262 77C186.049 77 185.873 76.9307 185.734 76.792C185.595 76.6533 185.526 76.4773 185.526 76.264V68.984C185.526 68.76 185.595 68.584 185.734 68.456C185.873 68.3173 186.049 68.248 186.262 68.248C186.582 68.248 186.849 68.3973 187.062 68.696L190.454 73.608L193.862 68.696C194.065 68.3973 194.326 68.248 194.646 68.248C194.87 68.248 195.046 68.3173 195.174 68.456C195.313 68.584 195.382 68.76 195.382 68.984V76.264C195.382 76.4773 195.313 76.6533 195.174 76.792C195.046 76.9307 194.87 77 194.646 77C194.422 77 194.241 76.9307 194.102 76.792C193.974 76.6533 193.91 76.4773 193.91 76.264V70.088L194.326 70.216L191.19 74.68C190.955 75.0107 190.699 75.176 190.422 75.176C190.155 75.1653 189.91 75 189.686 74.68L186.582 70.248L186.998 70.12V76.264C186.998 76.4773 186.929 76.6533 186.79 76.792C186.662 76.9307 186.486 77 186.262 77ZM211.348 77.096C210.729 77.096 210.18 76.9573 209.7 76.68C209.23 76.4027 208.862 76.0027 208.596 75.48C208.34 74.9467 208.212 74.312 208.212 73.576V68.984C208.212 68.76 208.276 68.584 208.404 68.456C208.542 68.3173 208.724 68.248 208.948 68.248C209.161 68.248 209.337 68.3173 209.476 68.456C209.614 68.584 209.684 68.76 209.684 68.984V73.576C209.684 74.0453 209.764 74.44 209.924 74.76C210.084 75.08 210.308 75.3253 210.596 75.496C210.884 75.656 211.22 75.736 211.604 75.736C212.201 75.736 212.692 75.5387 213.076 75.144C213.46 74.7387 213.652 74.2267 213.652 73.608H214.324C214.324 74.2907 214.19 74.8933 213.924 75.416C213.668 75.9387 213.316 76.3493 212.868 76.648C212.43 76.9467 211.924 77.096 211.348 77.096ZM205.924 77.096C205.305 77.096 204.761 76.9573 204.292 76.68C203.822 76.4027 203.449 76.0027 203.172 75.48C202.905 74.9467 202.772 74.312 202.772 73.576V68.984C202.772 68.76 202.841 68.584 202.98 68.456C203.118 68.3173 203.294 68.248 203.508 68.248C203.732 68.248 203.913 68.3173 204.052 68.456C204.19 68.584 204.26 68.76 204.26 68.984V73.576C204.26 74.0453 204.34 74.44 204.5 74.76C204.66 75.08 204.884 75.3253 205.172 75.496C205.46 75.656 205.79 75.736 206.164 75.736C206.772 75.736 207.262 75.5333 207.636 75.128C208.02 74.7227 208.212 74.2 208.212 73.56H208.884C208.873 74.2533 208.74 74.8667 208.484 75.4C208.238 75.9333 207.892 76.3493 207.444 76.648C207.006 76.9467 206.5 77.096 205.924 77.096ZM214.388 77C214.174 77 213.998 76.9307 213.86 76.792C213.721 76.6533 213.652 76.4773 213.652 76.264V68.984C213.652 68.76 213.721 68.584 213.86 68.456C213.998 68.3173 214.174 68.248 214.388 68.248C214.612 68.248 214.788 68.3173 214.916 68.456C215.054 68.584 215.124 68.76 215.124 68.984V76.264C215.124 76.4773 215.054 76.6533 214.916 76.792C214.788 76.9307 214.612 77 214.388 77ZM221.738 77.064C220.938 77.064 220.224 76.872 219.594 76.488C218.965 76.104 218.469 75.576 218.106 74.904C217.744 74.232 217.562 73.4747 217.562 72.632C217.562 71.7787 217.754 71.0213 218.138 70.36C218.533 69.688 219.061 69.16 219.722 68.776C220.394 68.3813 221.146 68.184 221.978 68.184C222.821 68.184 223.573 68.3813 224.234 68.776C224.896 69.16 225.418 69.688 225.802 70.36C226.197 71.032 226.4 71.7893 226.41 72.632L225.834 72.776C225.834 73.5867 225.653 74.3173 225.29 74.968C224.928 75.6187 224.437 76.1307 223.818 76.504C223.21 76.8773 222.517 77.064 221.738 77.064ZM221.978 75.752C222.554 75.752 223.066 75.6187 223.514 75.352C223.962 75.0747 224.314 74.7013 224.57 74.232C224.837 73.752 224.97 73.2187 224.97 72.632C224.97 72.0347 224.837 71.5013 224.57 71.032C224.314 70.552 223.962 70.1787 223.514 69.912C223.066 69.6347 222.554 69.496 221.978 69.496C221.424 69.496 220.917 69.6347 220.458 69.912C220 70.1787 219.637 70.552 219.37 71.032C219.114 71.5013 218.986 72.0347 218.986 72.632C218.986 73.2187 219.114 73.752 219.37 74.232C219.637 74.7013 220 75.0747 220.458 75.352C220.917 75.6187 221.424 75.752 221.978 75.752ZM225.658 77.016C225.445 77.016 225.269 76.9467 225.13 76.808C224.992 76.6693 224.922 76.4933 224.922 76.28V73.72L225.226 72.184L226.41 72.632V76.28C226.41 76.4933 226.336 76.6693 226.186 76.808C226.048 76.9467 225.872 77.016 225.658 77.016ZM229.559 80.744C229.345 80.744 229.169 80.6747 229.031 80.536C228.892 80.3973 228.823 80.2213 228.823 80.008V72.6C228.833 71.768 229.031 71.016 229.415 70.344C229.809 69.672 230.337 69.144 230.999 68.76C231.66 68.376 232.407 68.184 233.239 68.184C234.081 68.184 234.833 68.3813 235.495 68.776C236.167 69.16 236.695 69.688 237.079 70.36C237.473 71.0213 237.671 71.7787 237.671 72.632C237.671 73.4747 237.484 74.232 237.111 74.904C236.748 75.576 236.252 76.104 235.623 76.488C234.993 76.872 234.284 77.064 233.495 77.064C232.823 77.064 232.215 76.9253 231.671 76.648C231.127 76.3707 230.668 75.9973 230.295 75.528V80.008C230.295 80.2213 230.225 80.3973 230.087 80.536C229.959 80.6747 229.783 80.744 229.559 80.744ZM233.239 75.752C233.804 75.752 234.311 75.6187 234.759 75.352C235.217 75.0747 235.575 74.7013 235.831 74.232C236.097 73.752 236.231 73.2187 236.231 72.632C236.231 72.0347 236.097 71.5013 235.831 71.032C235.575 70.552 235.217 70.1787 234.759 69.912C234.311 69.6347 233.804 69.496 233.239 69.496C232.673 69.496 232.161 69.6347 231.703 69.912C231.255 70.1893 230.903 70.5627 230.647 71.032C230.391 71.5013 230.263 72.0347 230.263 72.632C230.263 73.2187 230.391 73.752 230.647 74.232C230.903 74.7013 231.255 75.0747 231.703 75.352C232.161 75.6187 232.673 75.752 233.239 75.752ZM243.832 77.064C243.032 77.064 242.317 76.872 241.688 76.488C241.059 76.104 240.563 75.576 240.2 74.904C239.837 74.232 239.656 73.4747 239.656 72.632C239.656 71.7787 239.848 71.0213 240.232 70.36C240.627 69.688 241.155 69.16 241.816 68.776C242.488 68.3813 243.24 68.184 244.072 68.184C244.915 68.184 245.667 68.3813 246.328 68.776C246.989 69.16 247.512 69.688 247.896 70.36C248.291 71.032 248.493 71.7893 248.504 72.632L247.928 72.776C247.928 73.5867 247.747 74.3173 247.384 74.968C247.021 75.6187 246.531 76.1307 245.912 76.504C245.304 76.8773 244.611 77.064 243.832 77.064ZM244.072 75.752C244.648 75.752 245.16 75.6187 245.608 75.352C246.056 75.0747 246.408 74.7013 246.664 74.232C246.931 73.752 247.064 73.2187 247.064 72.632C247.064 72.0347 246.931 71.5013 246.664 71.032C246.408 70.552 246.056 70.1787 245.608 69.912C245.16 69.6347 244.648 69.496 244.072 69.496C243.517 69.496 243.011 69.6347 242.552 69.912C242.093 70.1787 241.731 70.552 241.464 71.032C241.208 71.5013 241.08 72.0347 241.08 72.632C241.08 73.2187 241.208 73.752 241.464 74.232C241.731 74.7013 242.093 75.0747 242.552 75.352C243.011 75.6187 243.517 75.752 244.072 75.752ZM247.752 77.016C247.539 77.016 247.363 76.9467 247.224 76.808C247.085 76.6693 247.016 76.4933 247.016 76.28V73.72L247.32 72.184L248.504 72.632V76.28C248.504 76.4933 248.429 76.6693 248.28 76.808C248.141 76.9467 247.965 77.016 247.752 77.016ZM251.653 77C251.439 77 251.263 76.9307 251.125 76.792C250.986 76.6533 250.917 76.4773 250.917 76.264V68.984C250.917 68.76 250.986 68.584 251.125 68.456C251.263 68.3173 251.439 68.248 251.653 68.248C251.973 68.248 252.239 68.3973 252.453 68.696L255.845 73.608L259.253 68.696C259.455 68.3973 259.717 68.248 260.037 68.248C260.261 68.248 260.437 68.3173 260.565 68.456C260.703 68.584 260.773 68.76 260.773 68.984V76.264C260.773 76.4773 260.703 76.6533 260.565 76.792C260.437 76.9307 260.261 77 260.037 77C259.813 77 259.631 76.9307 259.493 76.792C259.365 76.6533 259.301 76.4773 259.301 76.264V70.088L259.717 70.216L256.581 74.68C256.346 75.0107 256.09 75.176 255.813 75.176C255.546 75.1653 255.301 75 255.077 74.68L251.973 70.248L252.389 70.12V76.264C252.389 76.4773 252.319 76.6533 252.181 76.792C252.053 76.9307 251.877 77 251.653 77Z" fill="#575E73"/>
</g>
<defs>
<filter id="filter0_d_19_722" x="0" y="-20" width="328" height="187" filterUnits="userSpaceOnUse" color-interpolation-filters="sRGB">
<feFlood flood-opacity="0" result="BackgroundImageFix"/>
<feColorMatrix in="SourceAlpha" type="matrix" values="0 0 0 0 0 0 0 0 0 0 0 0 0 0 0 0 0 0 127 0" result="hardAlpha"/>
<feOffset dy="4"/>
<feGaussianBlur stdDeviation="10"/>
<feComposite in2="hardAlpha" operator="out"/>
<feColorMatrix type="matrix" values="0 0 0 0 0.409001 0 0 0 0 0.18376 0 0 0 0 0.0172771 0 0 0 0.2 0"/>
<feBlend mode="normal" in2="BackgroundImageFix" result="effect1_dropShadow_19_722"/>
<feBlend mode="normal" in="SourceGraphic" in2="effect1_dropShadow_19_722" result="shape"/>
</filter>
</defs>
</svg>
