<svg width="24" height="24" viewBox="0 0 24 24" fill="none" xmlns="http://www.w3.org/2000/svg">
<path d="M4 16V10.2427C4 10.1312 4.11735 10.0587 4.21708 10.1085L10.6584 13.3292C11.5029 13.7515 12.4971 13.7515 13.3416 13.3292L19.7829 10.1085C19.8827 10.0587 20 10.1312 20 10.2427V16C20 17.1046 19.1046 18 18 18H6C4.89543 18 4 17.1046 4 16Z" fill="#495067"/>
<path d="M4 8.00001V8.9073C4 8.96412 4.0321 9.01606 4.08292 9.04147L10.6584 12.3292C11.5029 12.7515 12.4971 12.7515 13.3416 12.3292L19.9171 9.04147C19.9679 9.01606 20 8.96412 20 8.9073V8.00001C20 6.89544 19.1046 6.00001 18 6.00001H6C4.89543 6.00001 4 6.89544 4 8.00001Z" fill="#495067"/>
</svg>
