<svg width="24" height="24" viewBox="0 0 24 24" fill="none" xmlns="http://www.w3.org/2000/svg">
<mask id="mask0_208_611" style="mask-type:alpha" maskUnits="userSpaceOnUse" x="0" y="0" width="24" height="24">
<path d="M0 0H24V24H0V0Z" fill="#D9D9D9"/>
</mask>
<g mask="url(#mask0_208_611)">
<path d="M3.99998 7.49995C3.58578 7.49995 3.25 7.16418 3.25 6.74998L-nan -nanL3.25 6.74998C3.25 6.33578 3.58578 6 3.99998 6H20C20.4142 6 20.75 6.33578 20.75 6.74998L-nan -nanL20.75 6.74998C20.75 7.16418 20.4142 7.49995 20 7.49995H3.99998Z" fill="#A0466D"/>
<path d="M3.99998 12.5C3.58578 12.5 3.25 12.1642 3.25 11.75L-nan -nanL3.25 11.75C3.25 11.3358 3.58578 11 3.99998 11H20C20.4142 11 20.75 11.3358 20.75 11.75L-nan -nanL20.75 11.75C20.75 12.1642 20.4142 12.5 20 12.5H3.99998Z" fill="#A0466D"/>
<path d="M3.99998 17.5C3.58578 17.5 3.25 17.1642 3.25 16.75L-nan -nanL3.25 16.75C3.25 16.3358 3.58578 16 3.99998 16H20C20.4142 16 20.75 16.3358 20.75 16.75L-nan -nanL20.75 16.75C20.75 17.1642 20.4142 17.5 20 17.5H3.99998Z" fill="#A0466D"/>
</g>
</svg>
