<svg width="24" height="24" viewBox="0 0 24 24" fill="none" xmlns="http://www.w3.org/2000/svg">
<path d="M17.7071 13.7071L20.3552 16.3552C20.7113 16.7113 20.7113 17.2887 20.3552 17.6448C18.43 19.57 15.3821 19.7866 13.2039 18.153L11.6285 16.9714C9.88499 15.6638 8.33616 14.1149 7.02852 12.3714L5.84695 10.796C4.21335 8.61787 4.42996 5.56998 6.35518 3.64476C6.71127 3.28866 7.28862 3.28866 7.64471 3.64476L10.2928 6.29288C10.6834 6.68341 10.6834 7.31657 10.2928 7.7071L9.27169 8.72824C9.10941 8.89053 9.06917 9.13845 9.17181 9.34372C10.3585 11.717 12.2829 13.6415 14.6562 14.8281C14.8615 14.9308 15.1094 14.8905 15.2717 14.7282L16.2928 13.7071C16.6834 13.3166 17.3165 13.3166 17.7071 13.7071Z" fill="#495067"/>
<path fill-rule="evenodd" clip-rule="evenodd" d="M20.3553 17.6448C20.7114 17.2887 20.7114 16.7113 20.3553 16.3552L17.7071 13.7071C17.7071 13.707 17.707 13.707 17.7069 13.7069C17.3164 13.3166 16.6834 13.3166 16.2929 13.7071L15.5 14.5L19.4048 18.4048C19.743 18.1914 20.0621 17.9379 20.3553 17.6448ZM5.59521 4.59517L9.50003 8.49999L10.2929 7.7071C10.6834 7.31657 10.6834 6.68341 10.2929 6.29288L7.6448 3.64476C7.2887 3.28866 6.71136 3.28866 6.35526 3.64476C6.06214 3.93788 5.80862 4.25703 5.59521 4.59517Z" fill="#495067"/>
</svg>
