<svg width="18" height="18" viewBox="0 0 18 18" fill="none" xmlns="http://www.w3.org/2000/svg">
<path d="M13.7071 11.7071L16.3552 14.3552C16.7113 14.7113 16.7113 15.2887 16.3552 15.6448C14.43 17.57 11.3821 17.7866 9.20395 16.153L7.62853 14.9714C5.885 13.6638 4.33618 12.115 3.02853 10.3714L1.84697 8.79601C0.213369 6.61788 0.429975 3.56999 2.35519 1.64477C2.71129 1.28867 3.28863 1.28867 3.64473 1.64477L6.29286 4.29289C6.68338 4.68342 6.68338 5.31658 6.29286 5.70711L5.27171 6.72825C5.10942 6.89054 5.06919 7.13846 5.17183 7.34373C6.35849 9.71706 8.28291 11.6415 10.6562 12.8281C10.8615 12.9308 11.1094 12.8905 11.2717 12.7283L12.2929 11.7071C12.6834 11.3166 13.3165 11.3166 13.7071 11.7071Z" stroke="#333333"/>
</svg>
