<svg width="120" height="170" viewBox="0 0 120 170" fill="none" xmlns="http://www.w3.org/2000/svg">
<path d="M85.0493 58.775C83.1656 63.829 81.1834 68.9194 80.7771 74.3387C80.6786 75.7879 80.7771 77.2249 80.5555 78.6619C80.3788 80.1144 80.0906 81.5515 79.6936 82.9608C78.9343 85.7259 77.8169 88.3824 76.3694 90.8643C73.5869 95.5895 69.1423 99.1455 66.6799 104.053C63.9467 109.485 64.8208 115.805 62.8509 121.444C60.6471 127.764 54.4542 133.524 56.0917 140.709C56.2271 141.257 55.1806 141.391 55.0452 140.831C53.617 134.572 58.037 129.225 60.6717 123.977C62.0048 121.125 62.8375 118.069 63.1341 114.94C63.3704 111.906 63.9149 108.904 64.7593 105.977C66.6061 100.57 71.1122 96.7951 74.3256 92.2405C77.6807 87.3265 79.5512 81.569 79.7183 75.6417C79.9522 69.6623 82.1068 64.0969 84.5445 58.702C84.6553 58.4462 85.1478 58.4341 85.0124 58.775H85.0493Z" fill="#E0E0E0"/>
<path d="M85.7388 61.515C85.4543 62.3905 85.4839 63.3362 85.8226 64.1926C86.1613 65.049 86.7883 65.7636 87.5979 66.2157C88.0195 66.4201 88.4827 66.5263 88.9522 66.5263C89.4217 66.5263 89.8849 66.4201 90.3065 66.2157C90.9837 65.8626 91.2792 64.9979 90.3065 64.8153C89.6917 64.657 89.0388 64.7399 88.4844 65.0466C88.1026 65.3175 87.7848 65.6669 87.5527 66.0709C87.3207 66.4749 87.1799 66.9239 87.1401 67.3868C87.1003 67.8498 87.1625 68.3158 87.3223 68.7528C87.4821 69.1897 87.7357 69.5872 88.0658 69.9179C88.3802 70.2022 88.7588 70.408 89.17 70.5182C89.5812 70.6284 90.0131 70.6397 90.4296 70.5511C90.826 70.476 91.1905 70.2851 91.4762 70.0031C91.8455 69.65 92.2395 68.6879 91.39 68.6026C90.2819 68.493 89.4324 69.8205 89.4201 70.7338C89.4295 71.058 89.5043 71.377 89.64 71.6722C89.7757 71.9674 89.9697 72.2328 90.2105 72.4529C90.4514 72.673 90.7342 72.8432 91.0424 72.9537C91.3507 73.0642 91.6781 73.1127 92.0056 73.0964C92.3626 73.0964 92.1287 73.6444 91.8701 73.6809C91.182 73.7565 90.4892 73.5855 89.9177 73.1989C89.3461 72.8123 88.9337 72.2358 88.7552 71.5741C88.6393 70.9618 88.7137 70.3291 88.9687 69.7595C89.2236 69.1899 89.6472 68.7101 90.1834 68.3834C90.439 68.1988 90.7327 68.0725 91.0435 68.0135C91.3543 67.9545 91.6745 67.9644 91.9809 68.0425C92.2266 68.1661 92.4232 68.3677 92.5393 68.615C92.6554 68.8623 92.6842 69.141 92.6212 69.4064C92.4181 70.0001 92.0212 70.5101 91.493 70.8562C90.9647 71.2024 90.3351 71.3649 89.7032 71.3184C86.6991 71.3184 85.431 67.7745 87.1054 65.5338C87.5221 64.9355 88.128 64.4912 88.8278 64.2708C89.5276 64.0503 90.2817 64.0662 90.9714 64.316C91.2318 64.4313 91.4386 64.6396 91.5504 64.8993C91.6623 65.1589 91.6709 65.4507 91.5747 65.7164C91.4433 66.0338 91.2392 66.3166 90.9786 66.5427C90.7179 66.7688 90.4078 66.932 90.0726 67.0195C89.3465 67.2482 88.5695 67.2678 87.8326 67.0758C87.0957 66.8839 86.4292 66.4884 85.9112 65.9356C85.3761 65.308 85.0357 64.5408 84.9308 63.7263C84.826 62.9119 84.9612 62.0848 85.3202 61.3445C85.431 61.1009 85.7634 61.174 85.6772 61.4541L85.7388 61.515Z" fill="#E0E0E0"/>
<path d="M88.7429 62.0751C89.26 60.4433 87.2408 54.9144 86.5883 54.7683C85.9358 54.6221 81.4788 58.0076 80.9371 59.7491C80.8583 60.099 80.8762 60.4634 80.9889 60.8041C81.1015 61.1448 81.3048 61.4492 81.5773 61.6854C82.2986 62.3787 83.1754 62.8935 84.1361 63.1877C85.0968 63.4819 86.1143 63.5471 87.1054 63.3782C87.4633 63.3381 87.804 63.2041 88.0919 62.99C88.3798 62.7758 88.6046 62.4894 88.7429 62.1604V62.0751Z" fill="#A0466D"/>
<path d="M118.649 32.3728C114.733 44.8797 99.8237 57.6911 85.9605 56.6438C74.0426 49.0325 68.9455 30.8993 72.873 18.3436C76.8005 5.78801 88.583 -3.34557 103.333 1.1725C118.082 5.69058 122.576 19.8659 118.649 32.3728Z" fill="#A0466D"/>
<path opacity="0.1" d="M71.8141 25.1757C71.8141 25.1757 71.5063 38.2062 86.1698 43.7838C100.353 49.1665 117.06 36.9884 119.855 26.5031C119.649 28.4963 119.237 30.4632 118.624 32.3729C114.733 44.8798 99.8237 57.6912 85.9605 56.6439C76.111 50.3356 70.9031 36.7692 71.6418 25.1878L71.8141 25.1757Z" fill="black"/>
<path d="M57.2253 141.68C56.6797 136.758 55.5854 131.904 53.9604 127.2C53.0671 124.842 52.0123 122.541 50.8025 120.312C49.5201 118.021 48.0777 115.734 47.0492 113.229C43.1505 104.038 45.0605 93.5616 40.5131 84.5474C37.937 79.4556 33.2221 76.2074 28.4118 73.1003C27.862 72.7413 28.5869 72.111 29.0616 72.4138C33.2097 75.0946 37.4465 77.8895 40.1723 81.9577C42.8981 86.026 43.9771 90.8026 44.6476 95.4837C45.3632 100.535 45.6255 105.689 47.163 110.594C48.0514 113.167 49.2165 115.648 50.6402 117.997C51.9607 120.261 53.1274 122.602 54.1333 125.005C56.2739 130.285 57.4955 135.856 57.751 141.506C57.7562 141.738 57.27 142.027 57.2261 141.715L57.2253 141.68Z" fill="#E0E0E0"/>
<path d="M29.6459 73.2791C29.8632 73.9749 29.8923 74.7148 29.7302 75.4251C29.5681 76.1355 29.2206 76.7914 28.7223 77.3274C28.224 77.8634 27.5923 78.2608 26.8902 78.48C26.1882 78.6992 25.4403 78.7325 24.7212 78.5766C23.6377 78.3208 21.9018 77.0178 23.096 75.8365C23.3804 75.6335 23.7084 75.4982 24.0544 75.4412C24.4003 75.3841 24.7549 75.4069 25.0905 75.5077C25.8573 75.6576 26.5363 76.0937 26.9866 76.7255C27.3693 77.2601 27.6033 77.8848 27.6652 78.537C27.7271 79.1892 27.6146 79.8461 27.339 80.4418C27.0635 81.0374 26.6345 81.5511 26.0951 81.9312C25.5557 82.3113 24.9248 82.5445 24.2656 82.6075C23.6387 82.656 23.012 82.5111 22.4718 82.1927C21.9316 81.8743 21.5045 81.398 21.2492 80.8295C21.1447 80.559 21.13 80.2626 21.2071 79.9833C21.2842 79.704 21.4493 79.4561 21.6783 79.2757C21.9073 79.0953 22.1884 78.9917 22.4809 78.9799C22.7734 78.968 23.0622 79.0486 23.3053 79.2098C23.9457 79.5481 24.4392 80.106 24.6931 80.7787C24.947 81.4514 24.9438 82.1927 24.6842 82.8633C24.3944 83.5184 23.8789 84.0505 23.2296 84.3649C22.5803 84.6794 21.8393 84.7557 21.1384 84.5804C20.8183 84.483 21.1384 83.9715 21.4093 84.008C21.9081 84.0994 22.4234 84.0305 22.8797 83.8114C23.3361 83.5922 23.7096 83.2344 23.9455 82.7902C24.119 82.3896 24.1751 81.9489 24.1077 81.5183C24.0402 81.0877 23.8517 80.6844 23.5639 80.3546C23.4167 80.1434 23.2171 79.9731 22.9842 79.8601C22.7514 79.7471 22.4931 79.6951 22.2342 79.7091C21.9633 79.7091 21.9633 79.7944 21.951 80.0745C21.939 80.1756 21.939 80.2778 21.951 80.3789C22.0186 80.6389 22.1449 80.8804 22.3204 81.0853C22.6164 81.3987 22.9854 81.6358 23.3953 81.7759C23.8051 81.916 24.2434 81.9549 24.6719 81.889C26.6911 81.5724 27.3436 79.015 26.4325 77.4318C26.2024 76.974 25.8324 76.5994 25.3749 76.3611C24.9175 76.1229 24.3959 76.0331 23.884 76.1044C23.0714 76.2506 23.5639 77.0909 23.9702 77.4075C24.4099 77.7584 24.9461 77.9705 25.5091 78.0164C27.9715 78.2478 29.449 75.7756 29.2027 73.5592C29.2027 73.3765 29.5105 73.0355 29.5967 73.3035L29.6459 73.2791Z" fill="#E0E0E0"/>
<path d="M35.3094 72.4874C34.9893 70.8069 30.5817 66.849 29.9168 66.9829C29.252 67.1169 26.9373 72.2073 27.2821 73.9975C27.3802 74.3432 27.5701 74.6565 27.8321 74.9049C28.0941 75.1533 28.4186 75.3278 28.7718 75.4102C29.7365 75.6851 30.7531 75.7314 31.7392 75.5452C32.7253 75.359 33.6532 74.9456 34.4476 74.3385C34.746 74.1349 34.9835 73.8556 35.1352 73.5299C35.2868 73.2042 35.347 72.8441 35.3094 72.4874Z" fill="#DD7CA2"/>
<path d="M47.6337 32.3485C50.096 45.2086 43.0413 63.3662 30.2985 68.9681C16.1644 67.7503 3.0276 54.0986 0.540592 41.2385C-1.94641 28.3785 4.12335 14.7877 19.2916 11.9258C34.4599 9.06399 45.1467 19.4884 47.6337 32.3485Z" fill="#BA68C8"/>
<path opacity="0.5" d="M47.6337 32.3485C50.096 45.2086 43.0413 63.3662 30.2985 68.9681C16.1644 67.7503 3.0276 54.0986 0.540592 41.2385C-1.94641 28.3785 4.12335 14.7877 19.2916 11.9258C34.4599 9.06399 45.1467 19.4884 47.6337 32.3485Z" fill="#FF917C"/>
<path opacity="0.05" d="M2.85523 47.766C2.85523 47.766 8.74033 59.4448 24.3765 57.5085C39.4339 55.6574 48.4216 37.2198 45.8977 26.6005C46.672 28.4533 47.2537 30.3792 47.6337 32.3485C50.096 45.2086 43.0413 63.3662 30.2985 68.9681C18.5775 67.9938 7.55838 58.4218 2.7198 47.8512L2.85523 47.766Z" fill="black"/>
<path d="M54.0479 84.7631C53.7648 87.6493 53.3092 90.5112 53.1861 93.4096C53.0958 95.3386 53.1411 97.2714 53.3215 99.1942C53.555 101.178 53.9253 103.143 54.4296 105.076C55.5183 108.912 55.7286 112.939 55.0452 116.865C54.5404 120.896 53.654 124.878 53.3092 128.933C52.7515 133.272 53.35 137.68 55.0452 141.72C55.3038 142.256 54.3065 142.573 54.0603 142.061C50.6499 134.754 52.5213 126.644 53.6909 119.081C54.053 116.97 54.2874 114.839 54.3927 112.7C54.4287 110.651 54.2054 108.605 53.7278 106.611C53.3092 104.662 52.7675 102.726 52.4966 100.753C52.2281 98.7798 52.1374 96.7869 52.2258 94.7979C52.368 91.4455 52.8088 88.112 53.5432 84.8362C53.5432 84.5926 54.0972 84.4221 54.0603 84.8362L54.0479 84.7631Z" fill="#E0E0E0"/>
<path d="M51.241 86.4192C51.5744 87.0442 51.741 87.743 51.725 88.4495C51.7091 89.156 51.5112 89.8467 51.15 90.4564C50.7888 91.0661 50.2762 91.5745 49.6609 91.9336C49.0456 92.2926 48.3478 92.4904 47.6337 92.5082C46.5748 92.5082 44.6911 91.8141 45.2698 90.4136C45.8484 89.0131 48.1138 89.3541 49.1111 90.0848C49.6715 90.4694 50.1132 91.0001 50.3874 91.6179C50.6616 92.2356 50.7574 92.9165 50.6644 93.5848C50.5713 94.2532 50.2929 94.8831 49.8601 95.4045C49.4273 95.926 48.857 96.3187 48.2123 96.5392C47.6337 96.7431 47.0079 96.7781 46.4098 96.6399C45.8116 96.5017 45.2663 96.1962 44.8388 95.7598C44.6179 95.5591 44.4706 95.2916 44.42 94.9992C44.3694 94.7067 44.4183 94.406 44.5592 94.144C44.7001 93.8821 44.9248 93.6739 45.1983 93.5519C45.4717 93.43 45.7783 93.4013 46.07 93.4703C46.828 93.5878 47.5097 93.9935 47.9696 94.6009C48.4296 95.2082 48.6315 95.9693 48.5324 96.7219C48.3871 97.4284 47.9931 98.0609 47.4204 98.5069C46.8477 98.953 46.1336 99.1835 45.4052 99.1575C45.0482 99.1575 45.2821 98.5973 45.5529 98.573C46.0312 98.5511 46.4906 98.3822 46.8673 98.09C47.244 97.7977 47.5193 97.3966 47.6547 96.9424C47.7902 96.4882 47.7791 96.0035 47.6231 95.5558C47.467 95.1081 47.1738 94.7197 46.7841 94.4446C46.5932 94.3095 46.3811 94.2067 46.1562 94.1401C45.8361 94.0305 45.3929 94.0061 45.2082 94.3715C45.0235 94.7368 45.7007 95.4188 45.9715 95.5893C46.3389 95.8118 46.7568 95.9396 47.187 95.9609C47.6172 95.9822 48.046 95.8963 48.4339 95.7111C50.1699 94.8708 50.2315 92.4108 49.0988 91.0834C48.7715 90.6997 48.3464 90.4095 47.8676 90.2431C47.449 90.097 46.1193 89.963 45.8977 90.5354C45.6761 91.1078 46.4517 91.534 46.8703 91.6801C47.4045 91.8662 47.9816 91.8958 48.5324 91.7654C50.8347 91.2174 51.5119 88.6965 50.8347 86.6871C50.8347 86.4801 51.0687 86.1147 51.2164 86.3827L51.241 86.4192Z" fill="#E0E0E0"/>
<path d="M57.6677 86.9184C57.6677 85.2013 54.2573 80.4153 53.5802 80.391C52.903 80.3666 49.5419 84.8725 49.4926 86.6992C49.512 87.0556 49.6287 87.4001 49.8303 87.6961C50.0319 87.992 50.3109 88.2283 50.6376 88.3798C51.5183 88.8576 52.5014 89.1211 53.5054 89.1487C54.5095 89.1762 55.5058 88.9669 56.4119 88.5381C56.7417 88.3971 57.0286 88.1736 57.2445 87.8896C57.4604 87.6056 57.5977 87.2709 57.6431 86.9184H57.6677Z" fill="#BA68C8"/>
<path d="M57.6677 86.9184C57.6677 85.2013 54.2573 80.4153 53.5802 80.391C52.903 80.3666 49.5419 84.8725 49.4926 86.6992C49.512 87.0556 49.6287 87.4001 49.8303 87.6961C50.0319 87.992 50.3109 88.2283 50.6376 88.3798C51.5183 88.8576 52.5014 89.1211 53.5054 89.1487C54.5095 89.1762 55.5058 88.9669 56.4119 88.5381C56.7417 88.3971 57.0286 88.1737 57.2445 87.8896C57.4604 87.6056 57.5977 87.2709 57.6431 86.9184H57.6677Z" fill="#F2F2F2"/>
<path d="M78.3763 50.3842C78.0193 63.4757 67.1848 79.7213 53.5186 82.4857C39.9755 78.3451 30.1259 62.197 30.4583 49.1055C30.7908 36.0141 39.6677 24.0308 55.0822 24.4327C70.4967 24.8346 78.7334 37.2684 78.3763 50.3842Z" fill="white"/>
<path opacity="0.05" d="M31.308 55.9497C31.308 55.9497 34.5707 68.6515 50.2068 70.0276C65.3504 71.3915 78.0933 55.2555 77.9332 44.3805C78.2811 46.3624 78.4296 48.3735 78.3765 50.3843C78.0194 63.4758 67.1849 79.7214 53.5187 82.4858C42.2902 79.0516 33.598 67.3727 31.148 56.0228L31.308 55.9497Z" fill="black"/>
<path d="M55.0388 141.439C55.7182 142.634 56.2898 143.875 56.7482 145.153C56.9669 146.415 57.2628 147.667 57.6346 148.9C58.7476 151.355 60.0949 153.718 61.6614 155.963C63.1682 158.241 65.0296 160.394 66.4732 162.729C67.7693 164.912 68.6752 167.265 69.1577 169.701C69.2463 170.088 70.0821 170.111 69.9934 169.701C69.6443 167.405 68.8876 165.174 67.7521 163.094C66.3719 160.668 64.4472 158.537 62.9023 156.179C61.2526 153.866 59.8331 151.427 58.6603 148.889C58.0778 147.511 58.0905 146.052 57.6093 144.663C57.1247 143.499 56.5753 142.359 55.9631 141.245C55.7479 140.79 54.7982 141.017 55.0388 141.53V141.439Z" fill="#E0E0E0"/>
<path d="M55 141.411C55.7743 144.045 55.6762 146.847 56.2978 149.515C56.838 151.978 57.6313 154.375 58.6645 156.666C60.5731 160.769 63.9432 164.77 63.027 169.613C62.9507 169.96 63.6596 170.173 63.7469 169.814C64.6303 166.216 63.0489 162.91 61.3584 159.838C60.4189 158.217 59.581 156.536 58.8499 154.805C58.0762 152.812 57.474 150.753 57.0504 148.652C56.5378 146.219 56.625 143.697 55.9598 141.31C55.818 140.85 54.9455 140.917 55.0982 141.411H55Z" fill="#E0E0E0"/>
<path d="M55.0644 141.472C55.7011 142.689 56.238 143.953 56.67 145.252C57.1383 146.342 57.7536 147.366 58.4999 148.297C60.0136 150.458 61.6616 152.526 63.4347 154.491C66.634 158.122 70.1403 161.891 71.2146 166.705C71.3091 167.096 72.0764 167.119 71.9938 166.648C71.1556 161.787 67.6729 157.984 64.4735 154.365C62.6353 152.344 60.9281 150.214 59.3617 147.987C58.5649 146.983 57.9281 145.867 57.4728 144.678C57.0597 143.488 56.5423 142.335 55.9262 141.231C55.7019 140.794 54.7457 141.024 55.0644 141.53V141.472Z" fill="#E0E0E0"/>
<path d="M56.1072 141.506C57.1926 141.785 58.1737 142.399 58.9239 143.271C59.2882 143.685 59.6104 144.139 59.8852 144.624C60.0541 144.843 60.1723 145.1 60.2305 145.376C60.2886 145.652 60.2852 145.938 60.2205 146.212C59.6728 147.471 58.0744 145.141 57.7391 144.624C57.1347 143.606 56.6077 142.54 56.163 141.435L55.5036 141.612C56.0685 142.648 56.3035 143.848 56.1742 145.035C56.1113 145.645 55.9566 146.241 55.7159 146.8C55.5292 147.36 55.1864 147.848 54.7323 148.2C54.0617 148.588 53.8605 147.494 53.7934 147.024C53.7196 146.361 53.7884 145.69 53.9946 145.059C54.4699 143.801 55.1593 142.645 56.0289 141.647C56.2972 141.294 55.6489 140.871 55.403 141.188C53.9722 143.059 52.3068 145.459 53.3016 147.976C53.3731 148.243 53.5169 148.482 53.7155 148.664C53.914 148.845 54.1586 148.962 54.4194 149C54.6778 149.001 54.9326 148.936 55.1621 148.811C55.3917 148.686 55.5893 148.505 55.7383 148.282C56.3787 147.395 56.7663 146.334 56.8561 145.224C56.9853 143.922 56.7275 142.611 56.1183 141.471C55.9283 141.118 55.2577 141.188 55.4589 141.647C55.8995 142.763 56.4227 143.841 57.0237 144.871C57.5545 145.897 58.38 146.721 59.3822 147.224C60.4999 147.588 61.2041 146.494 60.947 145.435C60.6027 144.377 60.0062 143.429 59.2145 142.682C58.3583 141.747 57.2208 141.153 55.9954 141C55.6265 141 55.7942 141.471 56.0625 141.529L56.1072 141.506Z" fill="#E0E0E0"/>
</svg>
