<svg width="24" height="24" viewBox="0 0 24 24" fill="none" xmlns="http://www.w3.org/2000/svg">
<path fill-rule="evenodd" clip-rule="evenodd" d="M19 10.5C19 14.6421 15.6422 18 11.5 18C7.35788 18 4 14.6421 4 10.5C4 6.35786 7.35788 3 11.5 3C15.6422 3 19 6.35786 19 10.5ZM16.4271 17.4271C15.0373 18.4175 13.3367 19 11.5 19C6.80559 19 3 15.1944 3 10.5C3 5.80558 6.80559 2 11.5 2C16.1945 2 20 5.80558 20 10.5C20 12.9962 18.924 15.2412 17.2105 16.7962L21.7072 21.2929L21 22L16.4271 17.4271Z" fill="#454C61"/>
</svg>
