<svg width="24" height="24" viewBox="0 0 24 24" fill="none" xmlns="http://www.w3.org/2000/svg">
<path d="M13.8333 3.67665V11.2941C13.8333 12.2291 13.0724 12.99 12.1374 12.99H3.74992C3.24575 12.99 2.83325 12.5775 2.83325 12.0733V6.21581C2.83325 4.34581 4.34575 2.83331 6.21575 2.83331H12.9808C13.4574 2.83331 13.8333 3.20915 13.8333 3.67665Z" fill="#495067"/>
<path d="M20.7083 15.2083C20.9649 15.2083 21.1666 15.41 21.1666 15.6666V16.5833C21.1666 18.105 19.9383 19.3333 18.4166 19.3333C18.4166 17.8208 17.1791 16.5833 15.6666 16.5833C14.1541 16.5833 12.9166 17.8208 12.9166 19.3333H11.0833C11.0833 17.8208 9.84575 16.5833 8.33325 16.5833C6.82075 16.5833 5.58325 17.8208 5.58325 19.3333C4.06159 19.3333 2.83325 18.105 2.83325 16.5833V14.75C2.83325 14.2458 3.24575 13.8333 3.74992 13.8333H12.4583C13.7233 13.8333 14.7499 12.8066 14.7499 11.5416V6.49998C14.7499 5.99581 15.1624 5.58331 15.6666 5.58331H16.4366C17.0966 5.58331 17.7016 5.94081 18.0316 6.50915L18.6183 7.53581C18.7008 7.68248 18.5908 7.87498 18.4166 7.87498C17.1516 7.87498 16.1249 8.90165 16.1249 10.1666V12.9166C16.1249 14.1816 17.1516 15.2083 18.4166 15.2083H20.7083Z" fill="#495067"/>
<path d="M8.33333 21.1667C9.34586 21.1667 10.1667 20.3459 10.1667 19.3333C10.1667 18.3208 9.34586 17.5 8.33333 17.5C7.32081 17.5 6.5 18.3208 6.5 19.3333C6.5 20.3459 7.32081 21.1667 8.33333 21.1667Z" fill="#495067"/>
<path d="M15.6666 21.1667C16.6791 21.1667 17.4999 20.3459 17.4999 19.3333C17.4999 18.3208 16.6791 17.5 15.6666 17.5C14.6541 17.5 13.8333 18.3208 13.8333 19.3333C13.8333 20.3459 14.6541 21.1667 15.6666 21.1667Z" fill="#495067"/>
<path d="M21.1667 12.4858V13.8333H18.4167C17.9125 13.8333 17.5 13.4208 17.5 12.9167V10.1667C17.5 9.6625 17.9125 9.25 18.4167 9.25H19.5992L20.9283 11.5783C21.0842 11.8533 21.1667 12.165 21.1667 12.4858Z" fill="#495067"/>
</svg>
